<svg id="Capa_1" data-name="Capa 1" xmlns="http://www.w3.org/2000/svg" viewBox="0 0 1920 1080">
  <defs>
    <style>
      .cls-1 {
        opacity: 0.4;
      }

      .cls-2 {
        fill: #4254bb;
      }

      .cls-3 {
        fill: #001277;
      }
    </style>
  </defs>
  <title>AboutSection</title>
  <g class="cls-1">
    <path class="cls-2" d="M32.43,1008.78c49.07-12.08,82-51.9,149.5-39.6,43.8,8,64.92,25.73,106.38,12.38C388.44,949.32,414.6,874,390.19,800.27S301,658.63,320.13,586c10.49-39.5,46.89-71,60.31-109.49a68.66,68.66,0,0,0,2.89-35.09c-7.61-43.14-59.22-90.2-121.76-116.54-50.69-21.36-105.62-18-154-45.32C56,250.49,24.82,207.3-37.06,185.52c-74.29-26-149,1.7-159.91,45.38-6.94,27.8-10.52,81.18,11.11,110.32,26.35,35.46,22.74,64.43,14.74,98-15.25,63.94-50.3,123.92-78.75,184.34-24.39,51.78-55.12,101.48-68.74,156.27-10,40.17-17.71,74.42,45.08,109.8C-198.34,932-70.52,1034.13,32.43,1008.78Z"/>
    <path class="cls-3" d="M24.65,976.82C68.38,965.3,98,928.28,157.88,939.14c38.92,7.07,57.53,23.31,94.49,10.69,89.35-30.57,113.08-100.3,91.91-168.2s-78.34-130.2-60.61-197.4c9.6-36.62,42.28-65.87,54.43-101.69A66.16,66.16,0,0,0,341,450.12c-6.46-39.78-52-82.89-107.43-106.78-44.91-19.36-93.8-15.89-136.6-40.75-45.7-26.4-73.14-66.08-128.08-85.66C-97,193.39-163.64,219.56-173.65,260c-6.38,25.72-9.95,75.07,9.08,101.84,23.17,32.56,19.78,59.28,12.39,90.43-14,59.18-45.59,114.85-71.34,170.86-22.07,48-49.76,94.15-62.24,144.78-9.17,37.17-16.3,68.87,39.29,101.11C-180,907.52-67.13,1001,24.65,976.82Z"/>
  </g>
  <g class="cls-1">
    <path class="cls-2" d="M1930.76,532.7c-37.35,11.2-61.72,39-113.78,35.79-33.84-2.11-50.43-12.06-81.93-.63-76.13,27.64-94.35,77.92-73.88,123.63s71.86,84.93,58.78,133c-7.09,26.18-34.33,48.87-43.68,74.58a38,38,0,0,0-1.42,22.77c6.87,27.2,47.59,53.9,96.24,66.52,39.41,10.23,81.48,4.3,119.3,18.47,40.26,15.15,65.22,40.78,113.24,50.45,57.63,11.63,114.29-11.36,121.63-40.21,4.63-18.41,6.15-52.94-11.14-70.19-21.08-21-19-39.85-13.64-62,10.18-42.16,35.62-83.15,56-124,17.5-35,39.91-69.06,49-105.19,6.66-26.41,11.77-49-37.28-67.45C2109.72,566.21,2009.19,509.34,1930.76,532.7Z"/>
    <path class="cls-3" d="M1937.52,552.76c-33.28,10.43-55.09,36.27-101.34,33.42-30-1.86-44.71-11-72.7-.37-67.84,25.78-84.44,72.35-66.58,114.54s63.21,78.32,51.25,122.77c-6.49,24.24-30.85,45.28-39.34,69.09a36.45,36.45,0,0,0-1.44,21c5.89,25.15,41.87,49.72,85,61.26,34.94,9.35,72.31,3.69,105.8,16.77,35.65,13.9,57.63,37.52,100.18,46.3,51.11,10.58,101.62-10.84,108.34-37.54,4.29-17,5.86-49-9.39-64.86-18.55-19.35-16.58-36.8-11.66-57.3,9.36-39,32.25-77,50.69-114.82,15.79-32.39,35.94-63.91,44.32-97.39,6.15-24.54,10.87-45.41-32.54-62.31C2096.21,583.2,2007.32,530.9,1937.52,552.76Z"/>
  </g>
</svg>
