<?xml version="1.0" encoding="utf-8"?>
<!-- Generator: Adobe Illustrator 24.0.2, SVG Export Plug-In . SVG Version: 6.00 Build 0)  -->
<svg version="1.1" id="Capa_1" xmlns="http://www.w3.org/2000/svg" xmlns:xlink="http://www.w3.org/1999/xlink" x="0px" y="0px"
	 viewBox="0 0 1366 768" style="enable-background:new 0 0 1366 768;" xml:space="preserve">
<style type="text/css">
	.st0{fill:#E5E5E5;}
</style>
<g>
	<path class="st0" d="M314.5,258.5c2.9-13.1,6-26,13.8-37.3c11.4-16.7,30-25.7,47.2-21.4c14.8,3.7,24.8,13.6,32.4,26.4
		c17.6,29.4,12.8,74-10.6,97.4c-2.9,2.8-6,6.1-9.6,7.4c-6.5,2.3-7.4,6.4-7.3,12.5c0.2,65.3,0.1,130.7,0.1,196c0,0.7,0,1.4,0,2.2
		c-0.1,11.3-5.3,18.1-13.9,18.1c-8.8,0-13.8-6.5-13.8-18.1c0-66.8-0.1-133.6,0.1-200.3c0-4.6-1-7-5.3-9.3
		c-17.1-9-25.6-24.4-30.4-42.3c-1-3.7-1.8-7.4-2.8-11C314.5,271.9,314.5,265.2,314.5,258.5z"/>
	<path class="st0" d="M1050,300.2c-1.1,4.6-2,9.3-3.4,13.9c-4.7,15.9-12.6,23.2-34.8,32.8c0,2.4,0,5,0,7.5c0,60.3,0,120.7,0,181
		c0,3.3,0,6.8-0.7,10c-1.3,6.3-5.5,10-11.9,10.6c-6.8,0.6-11.8-2.4-13.9-8.8c-1.1-3.3-1.3-7-1.3-10.6c-0.1-61.1-0.1-122.1,0-183.2
		c0-4.8-0.8-7.3-6.1-9.1c-16.6-5.6-26.1-18-29.8-34.8c-1.3-6-2.1-12.3-2.2-18.5c-0.2-26.8-0.1-53.6-0.1-80.4c0-1.9-0.5-4.3,0.5-5.6
		c1.8-2.4,4.5-5.8,6.8-5.8c2.4,0,5.4,3.1,7,5.6c1.1,1.7,0.5,4.6,0.5,7c0,26.6,0,53.1,0,80.2c4.9,0,9.3,0,14.7,0c0-2.7,0-5.3,0-7.8
		c0-24.4,0-48.8,0-73.3c0-2.6-0.1-5.7,1.1-7.6c1.4-2.1,4.4-4.3,6.6-4.2c2.2,0.1,5,2.5,6.3,4.7c1.2,2.1,0.9,5.1,0.9,7.7
		c0.1,24.2,0,48.4,0,72.5c0,2.6,0,5.1,0,8c5.4,0,9.8,0,14.9,0c0-8.8,0-17.1,0-25.4c0-19.2,0.1-38.3,0-57.5c0-5.4,1.1-10.1,7.3-10.2
		c6.2-0.1,7.5,4.6,7.4,10c-0.1,24.9,0,49.8,0,74.7c0,2.6,0,5.2,0,8.3c5,0,9.4,0,14.7,0c0.1-2.5,0.4-5,0.4-7.5
		c0-24.7-0.1-49.3,0.2-74c0-3.6,1.5-8.8,4.1-10.3c2.3-1.3,6.9,1.4,10.6,2.4C1050,235.1,1050,267.6,1050,300.2z"/>
	<path class="st0" d="M942.3,383.6c-1.6,78.3-30.9,149.4-93.7,204.2c-60,52.3-130.5,72.9-209.4,59.1
		c-78.1-13.7-136.7-56.9-177.5-124.3C429.5,469.4,417,411.2,424,349.8c10.4-90.9,54.2-162,133.6-208.8
		c51.4-30.4,107.8-40.4,166.7-29.6c89,16.3,151.7,67.8,191.2,148.2C933.9,297.1,941.7,337.3,942.3,383.6z M907.8,373.6
		c-1.1-9.8-1.7-26-5-41.6c-12-58.4-40.6-107.2-88.6-143.1c-60.5-45.3-128.2-58.5-199.4-33.8c-93.6,32.4-143.9,102.2-156.4,199.3
		c-5.8,45.3,2.2,89.3,22.7,130.4C515.2,553.2,569,597.5,645,611.2c68.2,12.3,129.4-5.9,181.3-51.3
		C880.5,512.6,906,451.3,907.8,373.6z"/>
	<path class="st0" d="M890.5,381.7c-3.1,79.8-36.3,146.1-108.6,187.7c-67.6,39-137.9,38.2-204.3-3.1
		C504.1,520.6,471,451.4,475.2,365.4c3.4-68.7,33.9-124.4,89.4-165.2c44.2-32.4,94.6-45.6,148.6-35.6C806,182,861,240.2,884.6,330
		c2.1,8.1,3.3,16.4,4.2,24.7C889.8,362.8,889.9,371,890.5,381.7z M682.3,312c-2.6-4.5-4.3-8.3-6.8-11.4
		c-18.3-23.6-43.4-32.3-72.2-30.4c-29,1.8-49.8,16.4-59.1,44.4c-12.2,36.9-5.5,72,14.2,104.6c28.4,47,72.1,75.6,120.7,98
		c1.8,0.8,4.8,0.7,6.6-0.1c42.7-19.5,81.6-44.5,110.2-82.6c24-32,35.4-67.5,27.7-107.8c-7.6-39.8-41.5-63.1-81.5-56
		C716.2,275.1,694.8,286.3,682.3,312z"/>
	<path class="st0" d="M599.5,294.8c-33.8,45.6-27.9,91.8-3.8,138.6c-0.5,0.4-1,0.8-1.6,1.2c-5.9-8.3-12.6-16.2-17.5-25.1
		c-13.2-23.9-21.3-49.1-16.3-76.9C564.2,311.6,579.3,297.3,599.5,294.8z"/>
</g>
</svg>
