<svg xmlns="http://www.w3.org/2000/svg" xmlns:xlink="http://www.w3.org/1999/xlink" viewBox="0 0 483.47 900.94">
  <defs>
    <style>
      .cls-1 {
        isolation: isolate;
      }

      .cls-2 {
        fill: #6b99d1;
      }

      .cls-2, .cls-25 {
        opacity: 0.15;
        mix-blend-mode: multiply;
      }

      .cls-3 {
        fill: #dceeff;
      }

      .cls-4 {
        fill: #a5cbfa;
      }

      .cls-5 {
        fill: #c8e2ff;
      }

      .cls-24, .cls-6 {
        fill: #fff;
      }

      .cls-25, .cls-7 {
        fill: #344593;
      }

      .cls-8 {
        fill: #1e3779;
      }

      .cls-9 {
        fill: #031f60;
      }

      .cls-10 {
        fill: none;
        stroke: #fff;
        stroke-linecap: round;
        stroke-miterlimit: 10;
      }

      .cls-11 {
        fill: #6cffe6;
      }

      .cls-12 {
        fill: #41e5c9;
      }

      .cls-13 {
        fill: #abffef;
      }

      .cls-14 {
        fill: url(#Degradado_sin_nombre_54);
      }

      .cls-15 {
        fill: url(#Degradado_sin_nombre_54-2);
      }

      .cls-16 {
        fill: url(#Degradado_sin_nombre_54-3);
      }

      .cls-17 {
        fill: url(#Degradado_sin_nombre_54-4);
      }

      .cls-18 {
        fill: url(#Degradado_sin_nombre_54-5);
      }

      .cls-19 {
        fill: url(#Degradado_sin_nombre_54-6);
      }

      .cls-20 {
        fill: url(#Degradado_sin_nombre_54-7);
      }

      .cls-21 {
        fill: url(#Degradado_sin_nombre_54-8);
      }

      .cls-22 {
        fill: #b5deff;
      }

      .cls-23 {
        fill: #3a52aa;
      }

      .cls-24 {
        opacity: 0.4;
        mix-blend-mode: soft-light;
      }

      .cls-26 {
        opacity: 0.3;
        fill: url(#Degradado_sin_nombre_4);
      }

      .cls-27 {
        opacity: 0.5;
        fill: url(#Degradado_sin_nombre_4-2);
      }

      .cls-28 {
        fill: #ffa8a7;
      }

      .cls-29 {
        fill: #e4f2f2;
      }

      .cls-30 {
        fill: #2d2979;
      }

      .cls-31 {
        fill: #c4d9ff;
      }

      .cls-32 {
        fill: #9ebce8;
      }

      .cls-33 {
        fill: #f28f8f;
      }

      .cls-34 {
        fill: #3a2c6d;
      }

      .cls-35 {
        fill: #f5fbfb;
      }

      .cls-36 {
        fill: #291d51;
      }

      .cls-37 {
        fill: #7fa8e6;
      }

      .cls-38 {
        fill: #597bc6;
      }

      .cls-39 {
        fill: #543354;
      }
    </style>
    <linearGradient id="Degradado_sin_nombre_54" data-name="Degradado sin nombre 54" x1="107.17" y1="632.39" x2="138.08" y2="632.39" gradientUnits="userSpaceOnUse">
      <stop offset="0" stop-color="#c8e2ff"/>
      <stop offset="0.18" stop-color="#c2defc"/>
      <stop offset="0.41" stop-color="#b2d1f4"/>
      <stop offset="0.67" stop-color="#97bce7"/>
      <stop offset="0.95" stop-color="#729fd5"/>
      <stop offset="1" stop-color="#6b99d1"/>
    </linearGradient>
    <linearGradient id="Degradado_sin_nombre_54-2" x1="133.07" y1="647.41" x2="163.98" y2="647.41" xlink:href="#Degradado_sin_nombre_54"/>
    <linearGradient id="Degradado_sin_nombre_54-3" x1="158.97" y1="662.44" x2="189.88" y2="662.44" xlink:href="#Degradado_sin_nombre_54"/>
    <linearGradient id="Degradado_sin_nombre_54-4" x1="184.87" y1="677.45" x2="215.78" y2="677.45" xlink:href="#Degradado_sin_nombre_54"/>
    <linearGradient id="Degradado_sin_nombre_54-5" x1="3490.64" y1="632.39" x2="3521.54" y2="632.39" gradientTransform="matrix(-1, 0, 0, 1, 3866.99, 0)" xlink:href="#Degradado_sin_nombre_54"/>
    <linearGradient id="Degradado_sin_nombre_54-6" x1="3516.54" y1="647.41" x2="3547.44" y2="647.41" gradientTransform="matrix(-1, 0, 0, 1, 3866.99, 0)" xlink:href="#Degradado_sin_nombre_54"/>
    <linearGradient id="Degradado_sin_nombre_54-7" x1="3542.43" y1="662.44" x2="3573.34" y2="662.44" gradientTransform="matrix(-1, 0, 0, 1, 3866.99, 0)" xlink:href="#Degradado_sin_nombre_54"/>
    <linearGradient id="Degradado_sin_nombre_54-8" x1="3568.33" y1="677.45" x2="3599.24" y2="677.45" gradientTransform="matrix(-1, 0, 0, 1, 3866.99, 0)" xlink:href="#Degradado_sin_nombre_54"/>
    <linearGradient id="Degradado_sin_nombre_4" data-name="Degradado sin nombre 4" x1="477.73" y1="621.33" x2="256.06" y2="230.88" gradientUnits="userSpaceOnUse">
      <stop offset="0" stop-color="#57f7e0"/>
      <stop offset="0.12" stop-color="#57f7e0" stop-opacity="0.88"/>
      <stop offset="0.73" stop-color="#57f7e0" stop-opacity="0.25"/>
      <stop offset="1" stop-color="#57f7e0" stop-opacity="0"/>
    </linearGradient>
    <linearGradient id="Degradado_sin_nombre_4-2" x1="6.16" y1="622.86" x2="183.97" y2="306.62" xlink:href="#Degradado_sin_nombre_4"/>
  </defs>
  <title>ImgPortada2</title>
  <g class="cls-1">
    <g id="Capa_1" data-name="Capa 1">
      <g>
        <g>
          <path class="cls-2" d="M479.08,703.91,252.28,834.75a23.43,23.43,0,0,1-21.14,0L4.39,703.93C1.46,702.27,0,700.07,0,697.83a6.23,6.23,0,0,1,2.32-4.59,10.64,10.64,0,0,1,2.07-1.51l226.8-130.8c5.82-3.37,15.29-3.37,21.15,0L479.08,691.72C484.9,695.09,484.9,700.58,479.08,703.91Z"/>
          <path class="cls-2" d="M112.42,875.73,94,865.07c-12.51-7.22-29.8-9-38.61-3.88s-5.8,15.07,6.72,22.3l18.46,10.65c12.51,7.23,29.8,9,38.61,3.88S124.94,883,112.42,875.73Z"/>
          <path class="cls-3" d="M479.08,685.26l-226.8,130.8a21.33,21.33,0,0,1-10.57,2.52,21.64,21.64,0,0,1-10.53-2.48L4.39,685.28C1.46,683.57,0,681.37,0,679.18s1.46-4.43,4.39-6.1l30.74-17.73L231.19,542.24c5.82-3.38,15.29-3.38,21.15,0L479.08,673.06C484.9,676.4,484.9,681.89,479.08,685.26Z"/>
          <path class="cls-4" d="M241.71,774.5v44.08a21.64,21.64,0,0,1-10.53-2.48L4.39,685.28C1.46,683.57,0,681.37,0,679.18V641a6.23,6.23,0,0,1,2.32-4.59l32.81,19Z"/>
          <path class="cls-5" d="M241.71,774.5v44.08a21.62,21.62,0,0,0,10.53-2.48L479.08,685.26c2.93-1.71,4.39-3.9,4.39-6.1V641a6.27,6.27,0,0,0-2.31-4.6l-32.82,19Z"/>
          <path class="cls-3" d="M479.08,647.08,252.28,777.92a23.43,23.43,0,0,1-21.14,0L4.39,647.09C1.46,645.43,0,643.23,0,641a6.23,6.23,0,0,1,2.32-4.59,10.64,10.64,0,0,1,2.07-1.51L231.19,504.1c5.82-3.38,15.29-3.38,21.15,0L479.08,634.88C484.9,638.25,484.9,643.74,479.08,647.08Z"/>
          <path class="cls-2" d="M112.42,875.73,94,865.07c-12.51-7.22-29.8-9-38.61-3.88s-5.8,15.07,6.72,22.3l18.46,10.65c12.51,7.23,29.8,9,38.61,3.88S124.94,883,112.42,875.73Z"/>
          <path class="cls-2" d="M372.18,858.84l18.45-10.65c12.52-7.23,29.81-9,38.61-3.88s5.8,15.06-6.72,22.29l-18.45,10.66c-12.52,7.23-29.81,9-38.61,3.88S359.66,866.07,372.18,858.84Z"/>
          <path class="cls-6" d="M241.75,502.57A20.65,20.65,0,0,1,251.84,505L478.58,635.74c2.5,1.45,3.87,3.32,3.86,5.26s-1.37,3.78-3.86,5.21L251.78,777.05a22.41,22.41,0,0,1-20.14,0L4.89,646.22C2.38,644.8,1,642.94,1,641a5.31,5.31,0,0,1,2-3.86,10.12,10.12,0,0,1,1.89-1.37L231.69,505a20.47,20.47,0,0,1,10.06-2.39m0-1a21.48,21.48,0,0,0-10.56,2.53L4.39,634.89a10.64,10.64,0,0,0-2.07,1.51A6.23,6.23,0,0,0,0,641c0,2.24,1.46,4.44,4.39,6.1L231.14,777.92a23.43,23.43,0,0,0,21.14,0l226.8-130.84c5.82-3.34,5.82-8.83,0-12.2L252.34,504.1a21.65,21.65,0,0,0-10.59-2.53Z"/>
          <path class="cls-7" d="M234.71,530.66,50.42,636.94c-3.89,2.25-3.89,5.89,0,8.14L234.66,751.35a15.61,15.61,0,0,0,14.09,0L433,645.06c3.89-2.24,3.89-5.89,0-8.13L248.8,530.66A15.55,15.55,0,0,0,234.71,530.66Z"/>
          <path class="cls-8" d="M433,636.93,248.8,530.66a14.47,14.47,0,0,0-7.05-1.69v7.16L431.82,645.76l1.22-.7C436.93,642.82,436.93,639.17,433,636.93Z"/>
          <path class="cls-9" d="M241.76,529a14.47,14.47,0,0,0-7,1.69L50.42,636.94c-3.89,2.25-3.89,5.89,0,8.14l1.22.7L241.76,536.13Z"/>
        </g>
        <path class="cls-10" d="M243.25,592.23l54.56-31.39a.93.93,0,0,0,0-1.77l-54.56-31.5a3.37,3.37,0,0,0-3.06,0l-54.47,31.5a.93.93,0,0,0,0,1.77l54.46,31.39A3.39,3.39,0,0,0,243.25,592.23Z"/>
        <g>
          <g>
            <g>
              <path class="cls-11" d="M241.77,571.66V697.84a18.24,18.24,0,0,0,8.94-2.14l116.73-67.39c4.94-2.86,8.95-9.8,8.95-15.5V571.66Z"/>
              <path class="cls-12" d="M107.14,571.66v41.15c0,5.7,4,12.64,9,15.49l116.73,67.4a18.26,18.26,0,0,0,9,2.14V571.66Z"/>
            </g>
            <path class="cls-13" d="M232.78,647.27,110.84,576.83c-4.94-2.85-4.93-7.48,0-10.33l122-70.42c4.94-2.85,13-2.85,17.89,0l122,70.42c4.94,2.85,4.94,7.48,0,10.33l-122,70.45C245.72,650.13,237.72,650.13,232.78,647.27Z"/>
            <path class="cls-10" d="M135.86,568.23l99.94-57.72a13.2,13.2,0,0,1,11.93,0l100,57.72c3.29,1.91,3.29,5,0,6.89l-100,57.73a13.18,13.18,0,0,1-11.92,0l-99.9-57.73C132.56,573.22,132.57,570.13,135.86,568.23Z"/>
            <path class="cls-10" d="M244.7,524.94l78.66,45c1.64.95,1.64,2.49,0,3.44L244.7,618.44a6.59,6.59,0,0,1-6,0l-78-45c-1.65-.95-1.65-2.49,0-3.45l78-45A6.59,6.59,0,0,1,244.7,524.94Z"/>
          </g>
          <g>
            <path class="cls-14" d="M138.08,616.05a9.34,9.34,0,0,0-4.23-7.33,2.91,2.91,0,0,0-3-.27h0l-17.27,10a14.16,14.16,0,0,0-6.38,11.05v23.72h0a3,3,0,0,0,1.76,2.45,9.37,9.37,0,0,0,8.46,0,3,3,0,0,0,1.75-2.45V629.86a1.47,1.47,0,0,1,.73-1.27l17-9.79,0,0,0,0h0A3,3,0,0,0,138.08,616.05Z"/>
            <path class="cls-15" d="M164,631.07a9.34,9.34,0,0,0-4.23-7.33,2.93,2.93,0,0,0-3-.27h0l-17.27,10a14.14,14.14,0,0,0-6.38,11v23.72h0a3,3,0,0,0,1.76,2.44,9.34,9.34,0,0,0,8.46,0,3,3,0,0,0,1.75-2.44V644.88a1.46,1.46,0,0,1,.73-1.27l16.95-9.79,0,0,0,0h0A3,3,0,0,0,164,631.07Z"/>
            <path class="cls-16" d="M189.88,646.09a9.34,9.34,0,0,0-4.23-7.33,2.93,2.93,0,0,0-3-.27h0l-17.27,10a14.16,14.16,0,0,0-6.38,11v23.72h0a3,3,0,0,0,1.75,2.45,9.34,9.34,0,0,0,8.46,0,3,3,0,0,0,1.76-2.45V659.9a1.47,1.47,0,0,1,.73-1.27l17-9.79,0,0,0,0h0A3,3,0,0,0,189.88,646.09Z"/>
            <path class="cls-17" d="M215.78,661.11a9.37,9.37,0,0,0-4.23-7.33,2.93,2.93,0,0,0-3-.27h0l-17.27,10a14.14,14.14,0,0,0-6.38,11v23.72h0a3,3,0,0,0,1.75,2.44,9.37,9.37,0,0,0,8.46,0,3,3,0,0,0,1.75-2.45V674.92a1.46,1.46,0,0,1,.74-1.27l17-9.79,0,0,0,0h0A3,3,0,0,0,215.78,661.11Z"/>
          </g>
          <g>
            <path class="cls-18" d="M345.45,616.05a9.34,9.34,0,0,1,4.23-7.33,2.93,2.93,0,0,1,3-.27h0l17.27,10a14.13,14.13,0,0,1,6.38,11.05v23.72h0a3,3,0,0,1-1.75,2.45,9.37,9.37,0,0,1-8.46,0,3,3,0,0,1-1.76-2.45V629.86a1.47,1.47,0,0,0-.73-1.27l-17-9.79,0,0,0,0h0A3,3,0,0,1,345.45,616.05Z"/>
            <path class="cls-19" d="M319.55,631.07a9.34,9.34,0,0,1,4.23-7.33,2.93,2.93,0,0,1,3-.27h0l17.27,10a14.14,14.14,0,0,1,6.38,11v23.72h0a3,3,0,0,1-1.75,2.44,9.34,9.34,0,0,1-8.46,0,2.93,2.93,0,0,1-1.75-2.44V644.88a1.47,1.47,0,0,0-.74-1.27l-16.95-9.79a.05.05,0,0,0,0,0l0,0h0A3,3,0,0,1,319.55,631.07Z"/>
            <path class="cls-20" d="M293.65,646.09a9.34,9.34,0,0,1,4.23-7.33,2.93,2.93,0,0,1,3-.27h0l17.27,10a14.16,14.16,0,0,1,6.38,11v23.72h0a3,3,0,0,1-1.75,2.45,9.34,9.34,0,0,1-8.46,0,3,3,0,0,1-1.75-2.45V659.9a1.46,1.46,0,0,0-.74-1.27l-16.95-9.79,0,0-.05,0h0A3,3,0,0,1,293.65,646.09Z"/>
            <path class="cls-21" d="M267.75,661.11a9.37,9.37,0,0,1,4.23-7.33,2.93,2.93,0,0,1,3-.27h0l17.27,10a14.14,14.14,0,0,1,6.38,11v23.72h0a3,3,0,0,1-1.75,2.44,9.37,9.37,0,0,1-8.46,0,3,3,0,0,1-1.75-2.45V674.92a1.46,1.46,0,0,0-.74-1.27L269,663.86l0,0-.05,0h0A3,3,0,0,1,267.75,661.11Z"/>
          </g>
        </g>
        <g>
          <path class="cls-22" d="M349.16,253.51A115.34,115.34,0,1,1,268,184,115.35,115.35,0,0,1,349.16,253.51Z"/>
          <g>
            <path class="cls-23" d="M228.25,197.93c-5.27.09-12,2-7.14,5s8,3.28,8.07,7.17-2.5,8-1.25,10.73,3.31,6,5.31,5.05,7.51-7.07,10.64-6.79,13.81.76,15.36-2.73,3.13-3.25,5.68-7.13,2.42-9.06-.69-9.08-3.53,1.31-8.75.93-7.63-3.83-12.72-2.92S232.13,197.87,228.25,197.93Z"/>
            <path class="cls-23" d="M208.63,199.32c-6,3.19-18.58,8-24.42,6.39-2.89-.82-6.34-2-10-2.65a115.61,115.61,0,0,0-44.61,67.38,38,38,0,0,0,5.21,8.08c4.57,5.36,9.29,6,15.07,7.15s4,4.37,6.82,7.78,4.06,5.41,7.31,7.23-1.15,5.27-2.42,9-1.64,5.82,1,13.4,10.39,13.75,12.69,16.69-1.59,6.35-.61,12.5.68,22.48,6.58,31.66,9.44,8.11,9,1.92-2.48-12.05,1.11-16.7,10.85-3.42,13.31-11.92,4.06-8.09,8-11,2.18-5.37,5.83-11.93,4.74-12.76-.67-15.46-9-2.43-13.64-8.81a59.5,59.5,0,0,0-18.59-16.22c-6.7-3.64-17.36.8-21.61-.43S157,284.08,157.27,281s-2.88-3.94-5.94-3.17-4.76-1.2-5.6-5.29,5.52-9.25,10.69-9.64,7.94,2,9,8.65a12.93,12.93,0,0,0,10.2,11.16c4.76,1.2,1.78-3.76-1.59-7.15s-3.61-6.46-1.07-13.93,8.81-6.9,13.49-13.76,5.57-1.71,10.29-1,4-1.87,5.75-6.16,7.74-.59,12.68-4.08-5.36-8.93-4.69-13.66,5.36-4.55,2.75-11.62,1-7.35,2.87-10S214.62,196.12,208.63,199.32Zm-7,17.25c-1.56,3.5-2.9,2.82-5.46,6.65s-6.55,5.95-9.13,6.27-6.81-4.28-7-7.11,3.88-3.67,8.5-4.28,8.58-2.61,12.78-5.91C204.64,209.59,203.21,213.09,201.66,216.57Z"/>
            <path class="cls-23" d="M357.07,287.61l0,.33a8.15,8.15,0,0,0-4.57,4.54c-2.62,6.42-3.1,3.61-9.26,8s-3.81,7.81-3.47,12.19S333,322,329.46,323.56s-5.08,11.55-3.93,16.4-4.66,6.83-8.21,11.26-5.59,11.84-7.92,15.4a11,11,0,0,1-10.77,5c-4.21-.72-8.12-7.7-10.39-13.75a35.22,35.22,0,0,1-1.74-19.33c1.32-6.58.85-5.76-.72-16S277,309.16,273,308.17s-10.53,1.32-14.07-.75-5.06-5.06-7.35-14.74,2.47-11.87,6.22-17.09,11.11-10.7,17.73-12.52,11.14-.07,15.19,1.95,5.95,6.55,8.84,6.86,5.35-1.19,8.25-.63,4.82,2,7.63,1.49,1-3.71.62-5.5-2.95-1.33-6.33-1.35-4.23-.95-5.43-3.2-3.13-.27-4.76-1.19-1.31,3.21-1.45,4.81-1.39-1.21-1.39-1.21-1.39,2.17-2,1.18.78-3.43.59-5.9-3.78-1.89-6-3.81-5.35-2.17-8.39-1.16-3.6.27-5,3-8,4.5-10.07,4.15-.62-4.62,1.18-8.39,5.51-2.51,7.81-6.31-.84-4.34-3-5-2.79-2.65-.58-7.49,5.18-3.51,6.4-1.27,3.88,3.35,6.75,3.38,2.18-2,2.11-6.13,1.85-6.37,5.62-7.95,10.07-4.14,12.5-6.4,6.68-.78,8.94,1.65,7.26,3.34,12.53,4.23a4.36,4.36,0,0,0,3.72-1.24A114.92,114.92,0,0,1,357.07,287.61Z"/>
            <path class="cls-23" d="M335.47,344.38c-2.81-.48-2.56.46-4.21,2.66s-4.05,4.72-3.61,7,.65,5.14,2.59,3.44,1.28-3.74,4-5S339.67,345.1,335.47,344.38Z"/>
          </g>
          <path class="cls-24" d="M272.1,194.14c-73.47-21.21-87.18,28.87-48.25,60.43s105.67,42,114.67,21.15S326.71,209.9,272.1,194.14Z"/>
          <path class="cls-25" d="M210.77,354.17c-57.09-46.85-55.32-137.8-5.27-167.19h0c-2.11.71-4.22,1.46-6.32,2.3A115.35,115.35,0,1,0,348.45,340.92C332.32,363.3,267.83,401,210.77,354.17Z"/>
        </g>
        <path class="cls-26" d="M254.46,104.67a21.75,21.75,0,0,1-12.74,3h0V753.05a15.5,15.5,0,0,0,8.5-2.58L430.82,646.19c3.36-1.85,5-3.49,5-5.74V0Z"/>
        <path class="cls-27" d="M241.52,107.7a28.44,28.44,0,0,1-3.22-.12,1.38,1.38,0,0,0-.2,0,27.54,27.54,0,0,1-3-.51c-.66-.15-1.28-.38-1.91-.59-.4-.13-.8-.22-1.18-.36a23.06,23.06,0,0,1-2.94-1.37L47.62,0V640.44c.08,2.08,1.38,3.67,3.52,4.91l182.1,105.14a14.21,14.21,0,0,0,8.23,2.53c.08,0,.16,0,.23,0V107.71Z"/>
      </g>
      <g>
        <path class="cls-28" d="M436.43,671.32c.5,4.4,5.74,23.36,4.62,29.85s-19,17.36-19,17.36l-2.49-11.12,9.92-9.71-2.68-18.42Z"/>
        <path class="cls-29" d="M422.57,650a7.84,7.84,0,0,1,10,3c2.64,4.37,5.38,19.34,5.62,21.9,0,0-3.69,5.11-9.24,4.25Z"/>
        <path class="cls-30" d="M425.07,851.5a38.64,38.64,0,0,0,.8,4.39c.46,1.9.56,4.38-1.58,5.07s-4.59.46-6-1.39c-1.71-2.31-2.6-5.19-5.08-7.43s-5.33-4.59-6.19-8c-.77-3.1-.28-5,1.84-5.35,2.67-.39,6.91,1.85,9.08,3.45C419.54,843.37,425.07,851.5,425.07,851.5Z"/>
        <path class="cls-30" d="M400.57,860.46s.16,2.47.31,4.43.84,5.08.21,6.53-3.85,2.52-7.65,2.49c-2.46,0-7.23,1.89-8.91,3.35-2.42,2.1-7.95,2.94-11.21,1.91s-6.88-2.53-7.43-4,1.15-2.25,9.11-5.9,13.83-6.16,16.92-10.37Z"/>
        <path class="cls-31" d="M427,809.2a92.53,92.53,0,0,0-3.5-16.61s1-14.32,1.56-27.9c.6-15.42,5.95-29,1.73-41.29L379.23,734s2.87,61.45,3.51,68.89a139.07,139.07,0,0,0,2.13,17.26c2.18,11.93,5.7,40.31,5.7,40.31,5,2.92,10,0,10,0s1.27-34.61.95-43.2c-.4-10.5-.72-9.7-.72-9.7l1.57-26.14,1-13s1.32,9.55,2.18,18.08c.74,7.43,2.54,14.15,4.54,28,1.74,12,6.28,36.73,6.28,36.73,5,2.93,8.67.29,8.67.29S428.36,819.61,427,809.2Z"/>
        <path class="cls-32" d="M403.4,768.41s1.32,9.55,2.18,18.08c.36,3.58,1,7,1.71,11.13,0,0-.67-15.88-.41-23.39s1-15.63,1-15.63c10-4.25,12.06-10.33,12.06-10.33a41.34,41.34,0,0,1-15.24,8.27Z"/>
        <path class="cls-28" d="M420.05,650.28c-3.62.18-6.32,1.11-6.77,0a47.37,47.37,0,0,1-.82-5.66c.41-1,.77-2.18.77-2.18a17.61,17.61,0,0,0,8.4-13.25,17.81,17.81,0,0,0-15.87-19.56c-9.19-1-16,5.5-17.77,14.38-1,4.38-2.28,13.68.33,20.89,1.47,4,2.74,5.81,4.62,6.43a37.43,37.43,0,0,0,5.44-.07h0s.49,2.72.83,4.46.2,2.67-3.27,4.81,5.25,6.54,10.95,6.11,12.11-3.88,13.87-7.56C422.71,655,422.54,650.16,420.05,650.28Z"/>
        <path class="cls-33" d="M395.93,660.57a1.85,1.85,0,0,0-.29.24l5,1.7,14.71-2.27,3.42-8.77-.33-1.06c-2.77.3-4.75.81-5.13-.09a35,35,0,0,1-.75-4.92c-2.64.47-5.77,1-6.52,1.05-1.35,0-6.05-6.85-6.05-6.85s-.65,5.79-1.28,7.38-4.91,4.09-6.48,4.06a3.79,3.79,0,0,0,.74.33,37.43,37.43,0,0,0,5.44-.07h0s.49,2.72.83,4.46S399.4,658.43,395.93,660.57Z"/>
        <path class="cls-34" d="M421.73,618.11c-.43-2.13-1.93-4.88-13.38-8.09-10.94-3.07-19.51-4.37-21.61-3s-2.61,12.23,7.72,17.36a6.28,6.28,0,0,1,.67,3,45.94,45.94,0,0,0,0,4.84c.26,2.58,3,2.77,3,2.77s0-1.51,0-4.59a3.36,3.36,0,0,1,6.07.29,7.84,7.84,0,0,1-.35,7.26c-1.22,2.28-3.24,2.47-3.94,1.66a14.37,14.37,0,0,0,3.41,9.73,10.75,10.75,0,0,0,9.38-2.05,46.15,46.15,0,0,1,3.48-6c2.12-3.39,4.32-5.59,5.5-11A25.89,25.89,0,0,0,421.73,618.11Z"/>
        <path class="cls-35" d="M414.81,650.82c1,2.5-1.54,5.56-8.35,7.7s-7.41-.61-7.41-.61-10,4.54-13.22,6.81c-4.09,2.85-5.9,11.11-6.45,25.06-.63,16.13-.69,40.07-.15,44.2,0,0,7.63,7.61,17.39,6.8s26.2-9.44,30.18-16.11c-.11-14.15-1.76-16.45.53-24.6,5.24-18.67,8-26.3,5.46-38.7-2.11-10.22-5.05-11.49-9.09-11.39A84,84,0,0,0,414.81,650.82Z"/>
        <path class="cls-29" d="M413.06,649.43c-1.4,1.79-6.34,5.68-13.95,5.89-1.47-.25-2.28,2.6-3.11,4,0,0,3.43,2.8,11,.87s10.31-7.55,9.66-9.64C416.7,650.56,414.27,647.91,413.06,649.43Z"/>
        <path class="cls-28" d="M364,705.73c8,2,9.9-3,11-7.21,2.55-10.13,3.92-19.28,5.82-25,2.24-6.78,4.59-7.86,7.88-9.18,3.87-1.56,7.2,1.71,5.91,10.34-1.52,10.21-3.52,17.38-7.34,29.46-1,3.16-3.23,8.77-6.58,11.47-4.13,3.35-10.36,3.2-19.78.86-4-1-8.43-3.4-16-7-2-1-3.63-1.58-7.54-3.41s-8-4.86-10.05-7.84-2.32-4.37-1.9-5c.52-.85,1.45-.66,2.55.59a21.82,21.82,0,0,0,5.76,5.33s-2.53-2.61-3.9-4.31a21.69,21.69,0,0,1-3-5c-.72-1.73.77-4.08,1.9-2.85s1.68,2.5,3.75,5a21.76,21.76,0,0,0,3.71,3.54,41.19,41.19,0,0,1-3.42-5.5,9.22,9.22,0,0,1-1.25-5c.06-.9,1.34-2,2.54-.26,1.08,1.54,1.79,4,4.3,6.57,1.83,1.9,3.39,3,3.44,2.47s-1.11-1.57-1.77-3.78,0-4.55,1.23-4.81,1-.18,2,1.88,2.49,3.6,3.64,6.62c1,2.67,1.47,3.75,3.29,5.68C352.06,701.5,356.41,703.81,364,705.73Z"/>
        <path class="cls-29" d="M391.65,662.92c-5.35-.79-9.13,1.62-11.5,9.73s-4,14.76-4,14.76a14.55,14.55,0,0,0,9,6c6.41,1.55,8.71-1.51,8.71-1.51s1.77-8.5,2.88-14.28S398.27,663.9,391.65,662.92Z"/>
      </g>
      <g>
        <g>
          <g>
            <path class="cls-36" d="M72.05,874.12s-.81,1.43-5.2-.42-5.61-4-5.61-4,1.14-8.81,3.85-6.59S72.05,874.12,72.05,874.12Z"/>
            <path class="cls-28" d="M61,843.32c.07,4.61.19,8.15-1.57,10.62a9.57,9.57,0,0,0-1.9,4.16s5.22.74,7.86,4.32,2.5,7.18,5,7.77S77,868,77,868s-2.6-.11-3.61-3.37-3.63-10.24-3.73-12.07,0-8.91,0-8.91Z"/>
            <path class="cls-30" d="M61,855.14c2.27.14,5.75,2.68,6.91,5.31s3.08,6.32,4.55,7.14,4.09-.37,6.32-.39,3.81,1,3.93,2.65l-9.28,4.39c-2.14,1-3.94,1-5.62-3.4s-2.32-6.94-3.66-3.92-1.89,9.82-1.89,9.82a2.15,2.15,0,0,1-2.7-1.13,44.56,44.56,0,0,0-.32-5.93c-.39-2.73-2.87-6.17-2.68-9.47S58.52,855,61,855.14Z"/>
          </g>
          <g>
            <path class="cls-36" d="M106.62,892s-.83,1.47-5.37-.43-5.81-4.18-5.81-4.18,1.18-9.1,4-6.81S106.62,892,106.62,892Z"/>
            <path class="cls-28" d="M95.23,860.09c.08,4.77.2,8.43-1.62,11a9.86,9.86,0,0,0-2,4.3s5.39.76,8.13,4.47,2.59,7.42,5.13,8,6.78-2.31,6.78-2.31-2.69-.11-3.74-3.48-3.75-10.58-3.85-12.48-.45-9.53-.45-9.53Z"/>
            <path class="cls-30" d="M95.18,872.32c2.34.14,5.94,2.77,7.14,5.49s3.18,6.53,4.71,7.39,4.23-.39,6.53-.41,3.94,1.06,4.07,2.74l-9.6,4.54c-2.21,1-4.08,1.09-5.82-3.51s-2.4-7.19-3.78-4.06-2,10.16-2,10.16a2.24,2.24,0,0,1-2.79-1.17,45.69,45.69,0,0,0-.34-6.14c-.4-2.83-3-6.38-2.77-9.79S92.63,872.16,95.18,872.32Z"/>
          </g>
        </g>
        <path class="cls-28" d="M58.75,654c-4.16,1.2-6.55,5.82-10.21,15.68s-7.47,24.26-7,28.07c1.17,9.3,7,17.24,16.92,23.84l4.44-8.15s-9.77-7.86-10.7-17.16c-.53-5.23,6.26-23,6.26-23.49S58.75,654,58.75,654Z"/>
        <path class="cls-37" d="M55.61,815.46a48.23,48.23,0,0,1,2-14.28S54,783.63,52.69,770.1c-1.94-20-5.47-24.73-2.28-36.55,2.93-10.88,7.56-18.48,10.66-26.12L93.64,710s2.83,9.24,6.49,27.62,5.32,40.1,5,69.06c-.1,7.47-.15,14.13-.59,32.74-.3,12.5-.44,29.34-.44,29.34a8.48,8.48,0,0,1-9.26-.39s-7.71-37.1-9-45.61C84.59,814,87,808.69,87,808.69s-2.45-11.64-4.26-20.8c-2.21-11.16-7.68-35.28-7.68-35.28s-.17,36.91-.69,44.35-.22,13.4-1.6,23.33c-1.66,12-3.16,32.24-3.16,32.24a11.19,11.19,0,0,1-8.9-1.58S55.61,826,55.61,815.46Z"/>
        <path class="cls-38" d="M75.06,752.61s-.17,36.9-.69,44.35c-.06.94-.12,1.77-.19,2.53v.06c0,.14,0,.27,0,.41l-3.79-43.17c-10.49-3-13.82-10-13.82-10C63.61,753.84,75.06,752.61,75.06,752.61Z"/>
        <path class="cls-28" d="M60.68,653.77c6.94-.42,7.6.73,8.16-1.73.2-.88.58-7,.58-7a21.5,21.5,0,0,1-1.73-2.56,17.61,17.61,0,0,1-8.4-13.25,17.81,17.81,0,0,1,15.87-19.56c9.19-1,16,5.5,17.77,14.38,1,4.38,2,13.34-.74,20.51-1.54,4.06-3,6.9-6.64,6.76a23.38,23.38,0,0,1-3.63-.64,34.66,34.66,0,0,0-.2,5.09c.1,1.77-.2,2.66,3.27,4.8s-5.25,6.54-10.95,6.11-12.11-3.87-13.87-7.56C58.21,655,57.42,654,60.68,653.77Z"/>
        <path class="cls-33" d="M60.17,659.13c-2-4.12-2.75-5.17.51-5.36,6.94-.42,7.6.73,8.16-1.73.2-.88.58-7,.58-7a21.5,21.5,0,0,1-1.73-2.56,18,18,0,0,1-6.08-6.22l.42-.38,14.81,7.64,2.75-.6,2.2-2.48a36.07,36.07,0,0,0,1,6.23c.67,1.94,5.13,4.16,5.17,4.18a5.13,5.13,0,0,1-2.43.47,23.38,23.38,0,0,1-3.63-.64,34.66,34.66,0,0,0-.2,5.09c.1,1.77-.2,2.66,3.27,4.8s-5.25,6.54-10.95,6.11S61.93,662.82,60.17,659.13Z"/>
        <path class="cls-39" d="M65.75,643.09c-4.46-4.08-5.87-8.12-6.46-13.85a17.81,17.81,0,0,1,15.87-19.56,15.34,15.34,0,0,1,14.72,7A9.76,9.76,0,0,1,88.22,619a4.18,4.18,0,0,1-.64,3.88,5.31,5.31,0,0,0-1.1,4.33,23.71,23.71,0,0,1,.26,5.56,5,5,0,0,1-2.67,3.75,24.29,24.29,0,0,0-1.33-6.07,3.36,3.36,0,0,0-6.07.29c-1.34,3-.81,5.32.6,7.77a3.8,3.8,0,0,0,4.52,2c.29,1,0,4.36-3.9,5.45a13.36,13.36,0,0,1-9.45-.95A17.16,17.16,0,0,1,65.75,643.09Z"/>
        <path class="cls-39" d="M85.5,612.19c2.42-.47,9.28.92,9.2,8a11.66,11.66,0,0,1-8.91,11.31Z"/>
        <path class="cls-35" d="M67.57,653.62c-1.28,1.59-1.43,3.61,3.53,4.85a15.61,15.61,0,0,0,10.83-.83,72.27,72.27,0,0,1,11.2,5.94c11.07,7.68,13.74,21,2.58,25.63-.68,5-1.51,17.93-1.72,20.86-9.44,6.6-28.62,4.35-32.92-2.64a57.38,57.38,0,0,0-.65-7c-4.51-16.7-8-21.14-6.77-33.73.72-7.21,1.27-10.84,5.1-12.76C61.07,653.23,66.17,653.53,67.57,653.62Z"/>
        <path class="cls-29" d="M84.24,658.67s-1.15-3.12-1.41-3.86A1.45,1.45,0,0,0,81.7,654s-1.28,1.58-5.44,1.16-7.46-2.32-7.32-3.79l.09-1a2.42,2.42,0,0,0-2,.69c-.85.89-2.06,2.52-2.06,2.52s-.68,3.43,4.9,5.5A18.79,18.79,0,0,0,84.24,658.67Z"/>
        <path class="cls-28" d="M136.86,740.39c-2.27-.34-4.1-1.48-7.33-1.7a23.81,23.81,0,0,1-7.18-1.3c-2.5-.89-5.43-4-10-10.35-5.39-7.44-9.49-18.49-10.61-23.51a179.12,179.12,0,0,1-3.41-31.21c0-6.34-2.87-8.85-6.19-10.09-3.91-1.46-6.63-.1-6.33,8.62S87.57,695.63,91,707a77.42,77.42,0,0,0,11.54,23.63,66.23,66.23,0,0,0,12.83,14.21c1.69,1.49,2.57,3,5.46,6.22s7,6.23,10.43,7.33,4.85,1,5.38.35.21-1.59-1.31-2.27a22.05,22.05,0,0,1-6.78-4s3.24,1.66,5.26,2.48a22.09,22.09,0,0,0,5.62,1.45c1.87.19,3.69-1.93,2.18-2.65s-2.88-.88-5.86-2.13a21.88,21.88,0,0,1-4.47-2.52,41.65,41.65,0,0,0,6.26,1.67,9.14,9.14,0,0,0,5.13-.26c.85-.32,1.5-1.85-.49-2.5-1.79-.59-4.3-.56-7.54-2.21-2.36-1.19-3.85-2.36-3.36-2.56s1.82.6,4.13.59,4.34-1.35,4.24-2.58S139.12,740.72,136.86,740.39Z"/>
      </g>
    </g>
  </g>
</svg>
