<svg xmlns="http://www.w3.org/2000/svg" xmlns:xlink="http://www.w3.org/1999/xlink" viewBox="0 0 726.66 780.49">
  <defs>
    <style>
      .cls-1 {
        isolation: isolate;
      }

      .cls-2 {
        opacity: 0.19;
      }

      .cls-2, .cls-32, .cls-33, .cls-4, .cls-5, .cls-81, .cls-88 {
        mix-blend-mode: multiply;
      }

      .cls-3, .cls-81 {
        fill: #4588ff;
      }

      .cls-33, .cls-4, .cls-81, .cls-97 {
        opacity: 0.35;
      }

      .cls-25, .cls-5, .cls-87 {
        opacity: 0.25;
      }

      .cls-117, .cls-6, .cls-90, .cls-91 {
        fill: #fff;
      }

      .cls-7 {
        fill: url(#linear-gradient);
      }

      .cls-8 {
        fill: #2875df;
      }

      .cls-24, .cls-9 {
        fill: #75bcfc;
      }

      .cls-10 {
        fill: #4594f4;
      }

      .cls-11 {
        fill: #347ee8;
      }

      .cls-12 {
        fill: #fcc106;
      }

      .cls-118, .cls-13 {
        fill: #205ce2;
      }

      .cls-14 {
        fill: url(#linear-gradient-2);
      }

      .cls-15, .cls-28, .cls-77, .cls-85, .cls-86, .cls-87, .cls-88 {
        fill: #b4bbe1;
      }

      .cls-16 {
        fill: #dae3f2;
      }

      .cls-17 {
        fill: #ced2ef;
      }

      .cls-18 {
        fill: #c5c8e8;
      }

      .cls-19 {
        fill: url(#linear-gradient-3);
      }

      .cls-20 {
        fill: #ef770a;
      }

      .cls-21 {
        fill: #ff9906;
      }

      .cls-22 {
        fill: #328eea;
      }

      .cls-23 {
        fill: url(#linear-gradient-4);
      }

      .cls-24, .cls-28 {
        opacity: 0.45;
      }

      .cls-26, .cls-31, .cls-82, .cls-83, .cls-98 {
        fill: none;
      }

      .cls-26, .cls-98 {
        stroke: #fff;
      }

      .cls-26, .cls-31, .cls-83, .cls-98 {
        stroke-linecap: round;
      }

      .cls-26, .cls-31, .cls-82 {
        stroke-miterlimit: 10;
      }

      .cls-26 {
        stroke-width: 0.85px;
      }

      .cls-27 {
        fill: url(#linear-gradient-5);
      }

      .cls-29 {
        fill: url(#linear-gradient-6);
      }

      .cls-30 {
        fill: #f7f5fa;
      }

      .cls-31 {
        stroke: #b4bbe1;
      }

      .cls-32 {
        fill: url(#linear-gradient-7);
      }

      .cls-33 {
        fill: url(#linear-gradient-8);
      }

      .cls-34 {
        fill: #ebf6f7;
      }

      .cls-35 {
        fill: url(#linear-gradient-9);
      }

      .cls-36 {
        fill: url(#linear-gradient-10);
      }

      .cls-37 {
        fill: url(#linear-gradient-11);
      }

      .cls-38 {
        fill: url(#linear-gradient-12);
      }

      .cls-39 {
        fill: url(#linear-gradient-13);
      }

      .cls-40 {
        fill: url(#linear-gradient-14);
      }

      .cls-41 {
        fill: url(#linear-gradient-15);
      }

      .cls-42 {
        fill: url(#linear-gradient-16);
      }

      .cls-43 {
        fill: url(#linear-gradient-17);
      }

      .cls-44 {
        fill: url(#linear-gradient-18);
      }

      .cls-45 {
        fill: url(#linear-gradient-19);
      }

      .cls-46 {
        fill: url(#linear-gradient-20);
      }

      .cls-47 {
        fill: url(#linear-gradient-21);
      }

      .cls-48 {
        fill: url(#linear-gradient-22);
      }

      .cls-49 {
        fill: url(#linear-gradient-23);
      }

      .cls-50 {
        fill: url(#linear-gradient-24);
      }

      .cls-51 {
        fill: url(#linear-gradient-25);
      }

      .cls-52 {
        fill: url(#linear-gradient-26);
      }

      .cls-53 {
        fill: url(#linear-gradient-27);
      }

      .cls-54 {
        fill: url(#linear-gradient-28);
      }

      .cls-55 {
        fill: url(#linear-gradient-29);
      }

      .cls-56 {
        fill: url(#linear-gradient-30);
      }

      .cls-57 {
        fill: url(#linear-gradient-31);
      }

      .cls-58 {
        fill: url(#linear-gradient-32);
      }

      .cls-59 {
        fill: url(#linear-gradient-33);
      }

      .cls-60 {
        fill: url(#linear-gradient-34);
      }

      .cls-61 {
        fill: url(#linear-gradient-35);
      }

      .cls-62 {
        fill: url(#linear-gradient-36);
      }

      .cls-63 {
        fill: url(#linear-gradient-37);
      }

      .cls-64 {
        fill: url(#linear-gradient-38);
      }

      .cls-65 {
        fill: url(#linear-gradient-39);
      }

      .cls-66 {
        fill: url(#linear-gradient-40);
      }

      .cls-67 {
        fill: url(#linear-gradient-41);
      }

      .cls-68 {
        fill: url(#linear-gradient-42);
      }

      .cls-69 {
        fill: url(#linear-gradient-43);
      }

      .cls-70 {
        fill: url(#linear-gradient-44);
      }

      .cls-71 {
        fill: url(#linear-gradient-45);
      }

      .cls-72 {
        fill: url(#linear-gradient-46);
      }

      .cls-73 {
        fill: url(#linear-gradient-47);
      }

      .cls-74 {
        fill: url(#linear-gradient-48);
      }

      .cls-75 {
        fill: url(#linear-gradient-49);
      }

      .cls-76 {
        fill: url(#linear-gradient-50);
      }

      .cls-77 {
        font-size: 18.11px;
        font-family: OpenSans-Bold, OpenSans Bold;
        font-weight: 700;
        letter-spacing: -0.04em;
      }

      .cls-78 {
        letter-spacing: -0.04em;
      }

      .cls-79 {
        letter-spacing: -0.04em;
      }

      .cls-118, .cls-80 {
        opacity: 0.75;
      }

      .cls-82, .cls-83 {
        stroke: #dae3f2;
      }

      .cls-83, .cls-98 {
        stroke-linejoin: round;
      }

      .cls-84 {
        fill: url(#linear-gradient-51);
      }

      .cls-85 {
        opacity: 0.11;
      }

      .cls-86 {
        opacity: 0.15;
      }

      .cls-117, .cls-88 {
        opacity: 0.55;
      }

      .cls-89, .cls-90 {
        opacity: 0.2;
      }

      .cls-89 {
        mix-blend-mode: screen;
        fill: url(#linear-gradient-52);
      }

      .cls-91 {
        opacity: 0.4;
      }

      .cls-92 {
        fill: #81c5e8;
      }

      .cls-93 {
        fill: #cdd5f7;
      }

      .cls-94 {
        fill: #2d2d2d;
      }

      .cls-95 {
        fill: #3a3a3a;
      }

      .cls-96 {
        fill: #4b4c4c;
      }

      .cls-98 {
        stroke-width: 2.76px;
      }

      .cls-99 {
        fill: #f2ba88;
      }

      .cls-100 {
        fill: #ffd1a4;
      }

      .cls-101 {
        fill: #e8ecf7;
      }

      .cls-102 {
        fill: url(#linear-gradient-53);
      }

      .cls-103 {
        fill: #190b05;
      }

      .cls-104 {
        fill: #7f391b;
      }

      .cls-105 {
        fill: #934b32;
      }

      .cls-106 {
        fill: #682c17;
      }

      .cls-107 {
        fill: #595959;
        opacity: 0.5;
      }

      .cls-108 {
        fill: #845424;
      }

      .cls-109 {
        fill: #713e23;
      }

      .cls-110, .cls-113 {
        fill: #efefef;
      }

      .cls-110 {
        opacity: 0.39;
      }

      .cls-111 {
        fill: #442312;
      }

      .cls-112 {
        fill: #d39867;
      }

      .cls-114 {
        fill: #1d68d6;
      }

      .cls-115 {
        fill: url(#linear-gradient-54);
      }

      .cls-116 {
        fill: #063444;
      }

      .cls-119 {
        fill: #165bd6;
      }

      .cls-120 {
        fill: #474747;
      }

      .cls-121 {
        fill: #134dce;
      }
    </style>
    <linearGradient id="linear-gradient" x1="175.49" y1="284.5" x2="75.71" y2="342.11" gradientUnits="userSpaceOnUse">
      <stop offset="0" stop-color="#b4bbe1" stop-opacity="0.1"/>
      <stop offset="0.63" stop-color="#b4bbe1" stop-opacity="0.24"/>
      <stop offset="1" stop-color="#b4bbe1" stop-opacity="0.3"/>
    </linearGradient>
    <linearGradient id="linear-gradient-2" x1="237.51" y1="300.07" x2="137.74" y2="357.68" xlink:href="#linear-gradient"/>
    <linearGradient id="linear-gradient-3" x1="71.95" y1="396.8" x2="18.66" y2="427.57" xlink:href="#linear-gradient"/>
    <linearGradient id="linear-gradient-4" x1="1386.18" y1="421.23" x2="1737.17" y2="623.87" gradientTransform="matrix(-1, 0, 0, 1, 1878.5, 0)" xlink:href="#linear-gradient"/>
    <linearGradient id="linear-gradient-5" x1="397.08" y1="433.44" x2="187.86" y2="554.23" gradientUnits="userSpaceOnUse">
      <stop offset="0" stop-color="#ced5ef"/>
      <stop offset="0.37" stop-color="#d5ddf1"/>
      <stop offset="0.87" stop-color="#dae3f2"/>
    </linearGradient>
    <linearGradient id="linear-gradient-6" x1="450.9" y1="400.53" x2="240.11" y2="522.23" xlink:href="#linear-gradient-5"/>
    <linearGradient id="linear-gradient-7" x1="402.9" y1="561.24" x2="402.9" y2="257.44" xlink:href="#linear-gradient"/>
    <linearGradient id="linear-gradient-8" x1="285.21" y1="548.9" x2="456.89" y2="251.54" gradientUnits="userSpaceOnUse">
      <stop offset="0" stop-color="#b4bbe1" stop-opacity="0.1"/>
      <stop offset="0.41" stop-color="#b4bbe1" stop-opacity="0.4"/>
      <stop offset="0.83" stop-color="#b4bbe1" stop-opacity="0.8"/>
      <stop offset="0.84" stop-color="#c5cbe8" stop-opacity="0.68"/>
      <stop offset="0.87" stop-color="#dadef0" stop-opacity="0.55"/>
      <stop offset="0.89" stop-color="#eaecf7" stop-opacity="0.44"/>
      <stop offset="0.92" stop-color="#f6f7fb" stop-opacity="0.36"/>
      <stop offset="0.96" stop-color="#fdfdfe" stop-opacity="0.31"/>
      <stop offset="1" stop-color="#fff" stop-opacity="0.3"/>
    </linearGradient>
    <linearGradient id="linear-gradient-9" x1="334.22" y1="295.52" x2="414.85" y2="295.52" xlink:href="#linear-gradient-5"/>
    <linearGradient id="linear-gradient-10" x1="334.22" y1="287.17" x2="414.85" y2="287.17" xlink:href="#linear-gradient-5"/>
    <linearGradient id="linear-gradient-11" x1="334.22" y1="303.86" x2="414.85" y2="303.86" xlink:href="#linear-gradient-5"/>
    <linearGradient id="linear-gradient-12" x1="334.22" y1="312.21" x2="414.85" y2="312.21" xlink:href="#linear-gradient-5"/>
    <linearGradient id="linear-gradient-13" x1="334.22" y1="320.56" x2="414.85" y2="320.56" xlink:href="#linear-gradient-5"/>
    <linearGradient id="linear-gradient-14" x1="389.88" y1="392.87" x2="414.84" y2="392.87" xlink:href="#linear-gradient-5"/>
    <linearGradient id="linear-gradient-15" x1="334.22" y1="368.52" x2="386.55" y2="368.52" xlink:href="#linear-gradient-5"/>
    <linearGradient id="linear-gradient-16" x1="334.22" y1="369.95" x2="420.23" y2="369.95" xlink:href="#linear-gradient-5"/>
    <linearGradient id="linear-gradient-17" x1="334.22" y1="360.02" x2="414.85" y2="360.02" xlink:href="#linear-gradient-5"/>
    <linearGradient id="linear-gradient-18" x1="334.22" y1="351.68" x2="414.85" y2="351.68" xlink:href="#linear-gradient-5"/>
    <linearGradient id="linear-gradient-19" x1="334.22" y1="408.87" x2="414.85" y2="408.87" xlink:href="#linear-gradient-5"/>
    <linearGradient id="linear-gradient-20" x1="333.53" y1="420.21" x2="427.49" y2="420.21" xlink:href="#linear-gradient-5"/>
    <linearGradient id="linear-gradient-21" x1="331.65" y1="426.85" x2="426.82" y2="426.85" xlink:href="#linear-gradient-5"/>
    <linearGradient id="linear-gradient-22" x1="334.22" y1="400.52" x2="414.85" y2="400.52" xlink:href="#linear-gradient-5"/>
    <linearGradient id="linear-gradient-23" x1="334.22" y1="392.18" x2="414.85" y2="392.18" xlink:href="#linear-gradient-5"/>
    <linearGradient id="linear-gradient-24" x1="381.24" y1="397.46" x2="414.84" y2="397.46" xlink:href="#linear-gradient-5"/>
    <linearGradient id="linear-gradient-25" x1="334.22" y1="373.14" x2="377.9" y2="373.14" xlink:href="#linear-gradient-5"/>
    <linearGradient id="linear-gradient-26" x1="422.75" y1="416.1" x2="462.3" y2="416.1" xlink:href="#linear-gradient-5"/>
    <linearGradient id="linear-gradient-27" x1="422.75" y1="407.75" x2="462.3" y2="407.75" xlink:href="#linear-gradient-5"/>
    <linearGradient id="linear-gradient-28" x1="422.75" y1="395.08" x2="462.3" y2="395.08" xlink:href="#linear-gradient-5"/>
    <linearGradient id="linear-gradient-29" x1="422.75" y1="446.73" x2="457.03" y2="446.73" xlink:href="#linear-gradient-5"/>
    <linearGradient id="linear-gradient-30" x1="422.75" y1="439.9" x2="462.3" y2="439.9" xlink:href="#linear-gradient-5"/>
    <linearGradient id="linear-gradient-31" x1="422.75" y1="431.56" x2="462.3" y2="431.56" xlink:href="#linear-gradient-5"/>
    <linearGradient id="linear-gradient-32" x1="422.75" y1="423.21" x2="462.3" y2="423.21" xlink:href="#linear-gradient-5"/>
    <linearGradient id="linear-gradient-33" x1="334.22" y1="331.59" x2="406.43" y2="331.59" xlink:href="#linear-gradient-5"/>
    <linearGradient id="linear-gradient-34" x1="334.22" y1="357.25" x2="463.14" y2="357.25" xlink:href="#linear-gradient-5"/>
    <linearGradient id="linear-gradient-35" x1="428.52" y1="470.07" x2="462.3" y2="470.07" xlink:href="#linear-gradient-5"/>
    <linearGradient id="linear-gradient-36" x1="434.91" y1="489.73" x2="449.11" y2="489.73" xlink:href="#linear-gradient-5"/>
    <linearGradient id="linear-gradient-37" x1="326.09" y1="454.89" x2="410.96" y2="454.89" xlink:href="#linear-gradient-5"/>
    <linearGradient id="linear-gradient-38" x1="278.58" y1="402.06" x2="347.64" y2="402.06" xlink:href="#linear-gradient-5"/>
    <linearGradient id="linear-gradient-39" x1="272.66" y1="406.69" x2="340.43" y2="406.69" xlink:href="#linear-gradient-5"/>
    <linearGradient id="linear-gradient-40" x1="267.53" y1="411.93" x2="335.11" y2="411.93" xlink:href="#linear-gradient-5"/>
    <linearGradient id="linear-gradient-41" x1="262.81" y1="417.65" x2="330.44" y2="417.65" xlink:href="#linear-gradient-5"/>
    <linearGradient id="linear-gradient-42" x1="258.99" y1="423.74" x2="326.7" y2="423.74" xlink:href="#linear-gradient-5"/>
    <linearGradient id="linear-gradient-43" x1="256.03" y1="430.55" x2="323.72" y2="430.55" xlink:href="#linear-gradient-5"/>
    <linearGradient id="linear-gradient-44" x1="253.19" y1="460.54" x2="380.09" y2="460.54" xlink:href="#linear-gradient-5"/>
    <linearGradient id="linear-gradient-45" x1="252.73" y1="470.46" x2="380.09" y2="470.46" xlink:href="#linear-gradient-5"/>
    <linearGradient id="linear-gradient-46" x1="251.29" y1="479.65" x2="378.61" y2="479.65" xlink:href="#linear-gradient-5"/>
    <linearGradient id="linear-gradient-47" x1="248.47" y1="488.15" x2="375.78" y2="488.15" xlink:href="#linear-gradient-5"/>
    <linearGradient id="linear-gradient-48" x1="244.25" y1="495.88" x2="371.74" y2="495.88" xlink:href="#linear-gradient-5"/>
    <linearGradient id="linear-gradient-49" x1="238.89" y1="502.92" x2="366.42" y2="502.92" xlink:href="#linear-gradient-5"/>
    <linearGradient id="linear-gradient-50" x1="298.46" y1="528.44" x2="359.84" y2="528.44" xlink:href="#linear-gradient-5"/>
    <linearGradient id="linear-gradient-51" x1="679.86" y1="606.22" x2="504.63" y2="707.39" xlink:href="#linear-gradient"/>
    <linearGradient id="linear-gradient-52" x1="518.05" y1="617.67" x2="569.43" y2="617.67" xlink:href="#linear-gradient"/>
    <linearGradient id="linear-gradient-53" x1="253" y1="633.88" x2="189.09" y2="670.78" xlink:href="#linear-gradient"/>
    <linearGradient id="linear-gradient-54" x1="130.86" y1="677.68" x2="40.23" y2="730" gradientTransform="translate(-52.47 43.65) rotate(-5.77)" xlink:href="#linear-gradient"/>
  </defs>
  <title>imgPortada3</title>
  <g class="cls-1">
    <g id="Capa_1" data-name="Capa 1">
      <g>
        <g class="cls-2">
          <path class="cls-3" d="M486.55,127a4.13,4.13,0,0,1-1.34-.5L404.92,80.29A6.27,6.27,0,0,1,401.73,75V3.11A3,3,0,0,1,403.36.33a3.68,3.68,0,0,1,3.45.23L487,46.69A6.24,6.24,0,0,1,490.17,52v72a2.93,2.93,0,0,1-1.59,2.71A3.19,3.19,0,0,1,486.55,127Z"/>
        </g>
        <g class="cls-4">
          <path class="cls-3" d="M518.17,183.22a2.77,2.77,0,0,1-1-.35l-57.85-33.29a4.49,4.49,0,0,1-2.3-3.79V94a2.18,2.18,0,0,1,1.18-2,2.63,2.63,0,0,1,2.48.17l57.77,33.23a4.53,4.53,0,0,1,2.29,3.8v51.9a2.11,2.11,0,0,1-1.14,2A2.34,2.34,0,0,1,518.17,183.22Z"/>
        </g>
        <g class="cls-2">
          <path class="cls-3" d="M247.12,141.1a2.13,2.13,0,0,1-.66-.25L206.78,118a3.07,3.07,0,0,1-1.57-2.6V79.89a1.51,1.51,0,0,1,.8-1.38,1.81,1.81,0,0,1,1.71.12l39.61,22.79a3.08,3.08,0,0,1,1.58,2.6v35.6a1.44,1.44,0,0,1-.79,1.34A1.62,1.62,0,0,1,247.12,141.1Z"/>
        </g>
        <g>
          <g class="cls-5">
            <path class="cls-3" d="M649.11,346.78a4.35,4.35,0,0,1-1.44-.53l-86.08-49.52a6.73,6.73,0,0,1-3.41-5.65V214a3.24,3.24,0,0,1,1.75-3,3.93,3.93,0,0,1,3.7.26l85.94,49.45a6.7,6.7,0,0,1,3.43,5.65v77.22a3.17,3.17,0,0,1-1.71,2.92A3.5,3.5,0,0,1,649.11,346.78Z"/>
          </g>
          <g>
            <path class="cls-6" d="M606,310c-7.09-.25-16.62-10.07-21.33-21.86-5.41-13.54-5.26-28.18.39-36.86s15.32-9.53,24.21-2.26c-.21.77-.41,1.52-.62,2.27-2,7.54-4.14,15-6.07,22.65a18.31,18.31,0,0,0-.3,6.16c1,9,2.27,18.09,3.42,27.14C605.77,308.21,605.85,309.13,606,310Z"/>
            <path class="cls-6" d="M608.82,310.76c-1.27-9.92-2.48-19.45-3.74-29.31l18.81,16.79C620.91,306.56,615.92,310.58,608.82,310.76Z"/>
            <path class="cls-6" d="M612,251.57c10,9,16.11,29.39,12.89,42.91-6.55-5.85-13.09-11.69-19.74-17.61Z"/>
          </g>
        </g>
        <g>
          <polygon class="cls-7" points="67.03 327.07 101.67 347.03 184.17 299.54 149.79 279.47 67.03 327.07"/>
          <path class="cls-8" d="M152.6,137.89l-77.08,44.4,26.15,15,55.27-45V140.4A2.9,2.9,0,0,0,152.6,137.89Z"/>
          <polygon class="cls-9" points="75.51 186.42 152.15 142.27 179.75 158.19 103.12 202.32 75.51 186.42"/>
          <path class="cls-10" d="M181.84,153.4a3.17,3.17,0,0,0-3.34-.32l-76.83,44.25-26.15-15,77.08-44.4a2.81,2.81,0,0,1,2.5-.16v0s-2.68-1.32-3.74-1.94a3.12,3.12,0,0,0-3.23-.24L67,182.25V318.5L97.41,301v35.05l82.92-47.77a5,5,0,0,0,2.51-4.34l2.59-128.52S183,154.14,181.84,153.4Z"/>
          <polygon class="cls-11" points="101.67 202.23 67.03 182.28 67.03 318.53 101.67 338.48 101.67 202.23"/>
          <polygon class="cls-12" points="96.96 209.59 70.25 194.21 70.25 204.63 96.96 220.01 96.96 209.59"/>
          <polygon class="cls-12" points="96.96 223.35 70.25 207.97 70.25 211.57 96.96 226.96 96.96 223.35"/>
          <polygon class="cls-12" points="96.96 230.06 70.25 214.68 70.25 218.28 96.96 233.67 96.96 230.06"/>
          <polygon class="cls-12" points="96.96 320.76 70.25 305.38 70.25 308.99 96.96 324.37 96.96 320.76"/>
          <path class="cls-13" d="M182.76,155.52l-81.09,46.71V338.48l82.92-47.76a5,5,0,0,0,2.51-4.34V158A2.9,2.9,0,0,0,182.76,155.52Z"/>
        </g>
        <g>
          <polygon class="cls-14" points="129.06 342.64 163.7 362.6 246.19 315.11 211.82 295.04 129.06 342.64"/>
          <path class="cls-15" d="M214.63,147.9l-77.08,44.4,26.15,15,55.26-45V150.41A2.89,2.89,0,0,0,214.63,147.9Z"/>
          <polygon class="cls-16" points="137.53 196.43 214.18 152.28 241.77 168.2 165.15 212.33 137.53 196.43"/>
          <path class="cls-17" d="M243.87,163.41a3.17,3.17,0,0,0-3.34-.32L163.7,207.34l-26.15-15,77.08-44.4a2.81,2.81,0,0,1,2.5-.16v0s-2.68-1.32-3.75-1.94a3.12,3.12,0,0,0-3.23-.24l-81.09,46.72V328.51L159.43,311v35.05l82.93-47.77a5,5,0,0,0,2.51-4.34l2.59-128.52S245,164.15,243.87,163.41Z"/>
          <polygon class="cls-18" points="163.7 212.24 129.06 192.29 129.06 328.54 163.7 348.49 163.7 212.24"/>
          <polygon class="cls-6" points="158.99 219.6 132.28 204.22 132.28 214.64 158.99 230.02 158.99 219.6"/>
          <polygon class="cls-6" points="158.99 233.36 132.28 217.97 132.28 221.58 158.99 236.97 158.99 233.36"/>
          <polygon class="cls-6" points="158.99 240.07 132.28 224.69 132.28 228.29 158.99 243.68 158.99 240.07"/>
          <polygon class="cls-6" points="158.99 330.77 132.28 315.39 132.28 319 158.99 334.38 158.99 330.77"/>
          <path class="cls-15" d="M244.79,165.53,163.7,212.24V348.49l82.92-47.76a5,5,0,0,0,2.51-4.34V168A2.9,2.9,0,0,0,244.79,165.53Z"/>
        </g>
        <g>
          <polygon class="cls-19" points="0 395.25 74.85 439.05 90.61 429.12 15.76 385.32 0 395.25"/>
          <polygon class="cls-18" points="90.61 358.1 90.61 420.44 74.85 430.34 74.85 368.03 90.61 358.1"/>
          <polygon class="cls-17" points="0 324.23 74.85 368.03 90.61 358.1 15.76 314.3 0 324.23"/>
          <polygon class="cls-15" points="74.86 430.34 0.01 386.54 0.01 324.23 74.86 368.03 74.86 430.34"/>
          <polygon class="cls-18" points="0 324.23 37.42 377.29 74.85 368.03 0 324.23"/>
          <path class="cls-8" d="M60.6,336.34v12.27a2.07,2.07,0,0,1-1.34,1.94,2.1,2.1,0,0,1-.71.16,2,2,0,0,1-2-2V336.44a3.29,3.29,0,0,0-1.61-2.82l-18.74-11a1.28,1.28,0,0,0-1.36,0,.76.76,0,0,0-.27.2l-.08.05a1.4,1.4,0,0,0-.33.94v9.27a2.14,2.14,0,0,1-1.28,1.92,2,2,0,0,1-.77.18,2,2,0,0,1-2-2V324a5.47,5.47,0,0,1,2.78-4.82,4.44,4.44,0,0,1,1.34-.56,5.2,5.2,0,0,1,4.14.52l18.74,11A7.21,7.21,0,0,1,60.6,336.34Z"/>
          <polygon class="cls-20" points="41.66 374.97 41.66 381.34 40.25 382.23 40.25 375.86 41.66 374.97"/>
          <polygon class="cls-21" points="32.61 371.39 40.25 375.86 41.66 374.97 34.03 370.51 32.61 371.39"/>
          <polygon class="cls-12" points="40.25 382.23 32.61 377.75 32.61 371.39 40.25 375.86 40.25 382.23"/>
          <path class="cls-22" d="M60.6,336.34v12.27a2.07,2.07,0,0,1-1.34,1.94v-12.3c0-4.47-1.82-6.09-1.82-6.09L34.15,318.59a5.2,5.2,0,0,1,4.14.52l18.74,11A7.21,7.21,0,0,1,60.6,336.34Z"/>
          <path class="cls-22" d="M34.45,322.92a1.4,1.4,0,0,0-.33.94v9.27a2.14,2.14,0,0,1-1.28,1.92v-9.44A3.26,3.26,0,0,1,34.45,322.92Z"/>
        </g>
        <g>
          <path class="cls-23" d="M274.28,379.9,565.54,548.05,362,663.63a15.17,15.17,0,0,1-15.08,0L74.71,506.4a7.6,7.6,0,0,1,0-13.19Z"/>
          <path class="cls-15" d="M572.37,283.79V501.48l-6.83,3.8L281.11,333.33l-3.76-217.92s4.68-2.55,6.39-3.55a5.71,5.71,0,0,1,5.82-.11l275.23,158.9A15.18,15.18,0,0,1,572.37,283.79Z"/>
          <path class="cls-16" d="M565.54,287.59V505.28L274.28,337.12V120.42a5.63,5.63,0,0,1,8.45-4.88L558,274.45A15.18,15.18,0,0,1,565.54,287.59Z"/>
          <polygon class="cls-13" points="551.39 284.04 551.39 482.91 282.72 328.15 282.72 129.29 551.39 284.04"/>
          <polygon class="cls-9" points="510.95 273.26 510.95 294.16 358.8 206.52 358.8 185.61 510.95 273.26"/>
          <polygon class="cls-8" points="362.99 202.99 362.99 193.71 506.76 276.53 506.76 285.8 362.99 202.99"/>
          <g>
            <path class="cls-24" d="M463.52,374.63,515.87,405c2.36,1.37,5,.09,5-2.47V341.38a4.46,4.46,0,0,0-2.26-3.74l-52.35-30.37c-2.36-1.37-4.95-.08-4.95,2.47v61.15A4.46,4.46,0,0,0,463.52,374.63Z"/>
            <g class="cls-25">
              <line class="cls-26" x1="516.86" y1="348.57" x2="465.22" y2="318.73"/>
              <line class="cls-26" x1="516.86" y1="355.02" x2="465.22" y2="325.17"/>
              <line class="cls-26" x1="516.86" y1="361.46" x2="465.22" y2="331.62"/>
              <line class="cls-26" x1="516.86" y1="367.91" x2="465.22" y2="338.07"/>
              <line class="cls-26" x1="516.86" y1="374.36" x2="465.22" y2="344.52"/>
              <line class="cls-26" x1="516.86" y1="380.81" x2="465.22" y2="350.96"/>
              <line class="cls-26" x1="516.86" y1="387.26" x2="465.22" y2="357.41"/>
              <line class="cls-26" x1="516.86" y1="393.7" x2="478.45" y2="371.5"/>
            </g>
          </g>
          <path class="cls-15" d="M274.28,345.47,565.54,505.28v8.34L362,629.2a15.17,15.17,0,0,1-15.08-.05L74.71,472a7.53,7.53,0,0,1-3.8-6.54c0-2.59,0-8.42,0-8.42Z"/>
          <path class="cls-27" d="M274.28,337.12,565.54,505.28,362,620.85A15.17,15.17,0,0,1,347,620.8L74.71,463.62a7.6,7.6,0,0,1,0-13.19Z"/>
          <polygon class="cls-28" points="170.2 425.23 280.2 362.77 520.82 501.69 410.82 564.15 170.2 425.23"/>
          <path class="cls-29" d="M423.59,465l-10-5.78,12-6.83,10,5.77ZM472,498.48,262.16,377.32l-12,6.84L460,505.31Zm-49.3-47.82-10-5.78-12,6.83,10,5.78ZM409.8,443.2l-10-5.78-12,6.84,10,5.77ZM293.55,376.09,279,367.71l-12,6.83,14.51,8.38ZM461.46,473l-10-5.78-12,6.84,10,5.77Zm12.91,7.45-10-5.77-12,6.83,10,5.78Zm-25.83-14.91-10-5.77-12,6.83,10,5.77ZM319.39,391l-10-5.77-12,6.83,10,5.77Zm12.91,7.46-10-5.78-12,6.84,10,5.77Zm64.58,37.28-10-5.77-12,6.83,10,5.78Zm-100.41-58-12,6.83,10,5.78,12-6.84Zm48.75,28.15-10-5.78-12,6.83,10,5.78Zm12.91,7.45-10-5.77-12,6.83,10,5.78ZM384,428.29l-10-5.78-12,6.83,10,5.78Zm-12.91-7.46-10-5.78-12,6.84,10,5.77Zm117.86,68.05-11.62-6.71-12,6.83,11.62,6.71Zm-84.71,48.2-11.77,6.68L412,555.05l12-6.83L404,536.63Zm-2.75-7.47,27.41,15.82,12-6.83-27.41-15.82ZM204,421.2l-9.37-5.41-12,6.83L192,428Zm206.48,94.27,35.25,20.35,12-6.84-35.24-20.34Zm-8.94,19.78-11.33-6.54-12,6.83,11.32,6.54Zm90.28-44.69-12,6.83L496.38,507l12-6.83ZM462.89,507l16.61,9.6,12-6.84-16.61-9.59Zm-26.38,4.14,26.11,15.07,12-6.83-26.11-15.08ZM231.62,450.92l12-6.83-36.73-21.21-12,6.83Zm26.12,1.3-11.17-6.45-12,6.83,11.18,6.45Zm187.89,50.39L245.28,386.94l-12,6.83L433.6,509.44Zm-35.06,18.48-199-114.92-12,6.83L398.54,527.93Zm9-14.14L228.4,396.56l-12,6.83,191.21,110.4ZM372.89,518.7l-84.06-48.53-12,6.83,84.06,48.54ZM271.83,460.35l-11.18-6.45-12,6.84,11.18,6.45ZM387.3,527l-11.5-6.64-12,6.84,11.5,6.64ZM285.92,468.49,274.74,462l-12,6.83,11.18,6.45Z"/>
          <g>
            <path class="cls-30" d="M225.55,465.55l62.26,35.95a1.69,1.69,0,0,1,0,2.93L253.28,524a5.08,5.08,0,0,1-5.06,0L186,488.07a1.69,1.69,0,0,1,0-2.93l34.52-19.6A5.1,5.1,0,0,1,225.55,465.55Z"/>
            <path class="cls-15" d="M287.81,502.7l-62.26-35.94a5.1,5.1,0,0,0-5.06,0L186,486.34a1.66,1.66,0,0,0-.73.87,1.68,1.68,0,0,1,.73-2.07l34.52-19.6a5.1,5.1,0,0,1,5.06,0l62.26,35.95a1.68,1.68,0,0,1,.72,2.07A1.64,1.64,0,0,0,287.81,502.7Z"/>
          </g>
          <line class="cls-31" x1="417.05" y1="198.9" x2="434.89" y2="209.2"/>
          <path class="cls-15" d="M443.36,213.09c.42.94,0,1.7-.94,1.7a3,3,0,0,1-2.46-1.7c-.42-.93,0-1.69.94-1.69A3,3,0,0,1,443.36,213.09Z"/>
        </g>
        <g>
          <polygon class="cls-32" points="453.44 257.44 502.64 278.75 502.64 291.99 502.64 469.39 346.79 561.24 303.15 508.25 453.44 257.44"/>
          <path class="cls-15" d="M385.33,464.87l54.48,31.94.08-.7a12,12,0,0,1-5-9.91v-8c0-5.69-2.74-15.34-6.74-18.12a15.77,15.77,0,0,0-2.17-1.27l-.06,0A16.37,16.37,0,0,0,409.72,460C406.19,462.28,388.22,461.92,385.33,464.87Z"/>
          <path class="cls-6" d="M502.64,278l-137.1-79-26.25,15h0a16.11,16.11,0,0,0-8.42,14.14V387.74a28.5,28.5,0,0,1-3.51,13.63l-35.58-20.68a13.42,13.42,0,0,0-2.35-1.36l-.06,0a16.3,16.3,0,0,0-7.46-1.53,16.8,16.8,0,0,0-8.62,2.77,56.59,56.59,0,0,0-25.88,47.14v.43a54.11,54.11,0,0,1-22.79,43.81l-32.12,22.88,136.42,79.35L361,551.25c14.26-10.16,23.34-27.06,22.81-43.8V507a55.62,55.62,0,0,1,6.37-25.74,57.09,57.09,0,0,1,19.5-21.41,16.37,16.37,0,0,1,16.21-1.17l.06,0a10.3,10.3,0,0,1,2.26,1.52c5.87,5.25,6.64,12.19,6.65,17.87v8a12.29,12.29,0,0,0,19.38,10h0c11.14-6.95,13-19.45,13-29V307.42a16.13,16.13,0,0,1,9.1-14.48v0Z"/>
          <path class="cls-33" d="M502.64,278l-137.1-79-26.25,15h0a16.11,16.11,0,0,0-8.42,14.14V387.74a28.5,28.5,0,0,1-3.51,13.63l-35.58-20.68a13.42,13.42,0,0,0-2.35-1.36l-.06,0a16.3,16.3,0,0,0-7.46-1.53,16.8,16.8,0,0,0-8.62,2.77,56.59,56.59,0,0,0-25.88,47.14v.43a54.11,54.11,0,0,1-22.79,43.81l-32.12,22.88,136.42,79.35L361,551.25c14.26-10.16,23.34-27.06,22.81-43.8V507a55.62,55.62,0,0,1,6.37-25.74,57.09,57.09,0,0,1,19.5-21.41,16.37,16.37,0,0,1,16.21-1.17l.06,0a10.3,10.3,0,0,1,2.26,1.52c5.87,5.25,6.64,12.19,6.65,17.87v8a12.29,12.29,0,0,0,19.38,10h0c11.14-6.95,13-19.45,13-29V307.42a16.13,16.13,0,0,1,9.1-14.48v0Z"/>
          <path class="cls-6" d="M337.35,430.91l-6.25-3.63A12.25,12.25,0,0,0,337.35,430.91Z"/>
          <polygon class="cls-18" points="192.51 494.79 192.51 496.12 328.93 575.39 328.93 574.13 192.51 494.79"/>
          <path class="cls-34" d="M432.42,447.85h0Z"/>
          <g>
            <path class="cls-12" d="M419.17,348.63l42.54,24.68a1,1,0,0,0,1.43-.85V321.29a2.52,2.52,0,0,0-1.24-2.18l-43-25a.78.78,0,0,0-1.15.68v51.26A2.91,2.91,0,0,0,419.17,348.63Z"/>
            <path class="cls-35" d="M334.64,274.35l79.57,46.23a.43.43,0,0,0,.64-.38v-2.85a.73.73,0,0,0-.37-.64l-79.6-46.25a.44.44,0,0,0-.66.39v2.76A.85.85,0,0,0,334.64,274.35Z"/>
            <path class="cls-36" d="M334.64,266l79.57,46.22a.43.43,0,0,0,.64-.38V309a.73.73,0,0,0-.37-.64l-79.6-46.25a.44.44,0,0,0-.66.39v2.76A.88.88,0,0,0,334.64,266Z"/>
            <path class="cls-37" d="M334.64,282.7l79.57,46.23a.43.43,0,0,0,.64-.38v-2.86a.75.75,0,0,0-.37-.64l-79.6-46.25a.45.45,0,0,0-.66.39V282A.85.85,0,0,0,334.64,282.7Z"/>
            <path class="cls-38" d="M334.64,291.05l79.57,46.22a.43.43,0,0,0,.64-.38V334a.73.73,0,0,0-.37-.64l-79.6-46.25a.44.44,0,0,0-.66.39v2.77A.86.86,0,0,0,334.64,291.05Z"/>
            <path class="cls-39" d="M334.64,299.4l79.57,46.22a.43.43,0,0,0,.64-.38v-2.85a.73.73,0,0,0-.37-.64l-79.6-46.25a.44.44,0,0,0-.66.39v2.76A.88.88,0,0,0,334.64,299.4Z"/>
            <path class="cls-40" d="M414.49,397.9,390.41,384a.36.36,0,0,0-.53.31v2.87a.93.93,0,0,0,.46.81l23.86,13.83a.44.44,0,0,0,.64-.39v-2.85A.75.75,0,0,0,414.49,397.9Z"/>
            <path class="cls-41" d="M334.22,352.05v2.76a.88.88,0,0,0,.42.75l51.25,29.82a.45.45,0,0,0,.66-.4v-2.74a.91.91,0,0,0-.45-.79l-51.22-29.79A.44.44,0,0,0,334.22,352.05Z"/>
            <path class="cls-42" d="M334.64,347.21l84.95,49.38a.43.43,0,0,0,.64-.38v-2.86a.76.76,0,0,0-.36-.64l-85-49.4a.44.44,0,0,0-.66.39v2.76A.88.88,0,0,0,334.64,347.21Z"/>
            <path class="cls-43" d="M334.64,338.86l79.57,46.22a.43.43,0,0,0,.64-.38v-2.85a.73.73,0,0,0-.37-.64L334.88,335a.44.44,0,0,0-.66.39v2.77A.86.86,0,0,0,334.64,338.86Z"/>
            <path class="cls-44" d="M334.64,330.51l79.57,46.23a.43.43,0,0,0,.64-.38V373.5a.75.75,0,0,0-.37-.64l-79.6-46.24a.44.44,0,0,0-.66.39v2.76A.85.85,0,0,0,334.64,330.51Z"/>
            <path class="cls-45" d="M334.64,387.71l79.57,46.22a.43.43,0,0,0,.64-.38V430.7a.73.73,0,0,0-.37-.64l-79.6-46.25a.44.44,0,0,0-.66.39V387A.88.88,0,0,0,334.64,387.71Z"/>
            <path class="cls-46" d="M334.13,395.27,426.93,449c.34.2.45,0,.49-.16h0c0-.64.07-1.29.07-1.95v-1.08a.85.85,0,0,0-.27-.67l-.06,0L334.44,391.4a.41.41,0,0,0-.61.35c-.07.75-.16,1.5-.29,2.23A1.26,1.26,0,0,0,334.13,395.27Z"/>
            <path class="cls-47" d="M332.1,401.58l93.14,53.92a.7.7,0,0,0,1-.4c.21-.68.39-1.36.55-2.05a.84.84,0,0,0-.4-.92l-93.25-54a.49.49,0,0,0-.7.28c-.22.66-.46,1.3-.72,1.94A1,1,0,0,0,332.1,401.58Z"/>
            <path class="cls-48" d="M334.64,379.36l79.57,46.23a.44.44,0,0,0,.64-.38v-2.86a.74.74,0,0,0-.37-.64l-79.6-46.25a.45.45,0,0,0-.66.39v2.77A.85.85,0,0,0,334.64,379.36Z"/>
            <path class="cls-49" d="M334.64,371l79.57,46.23a.43.43,0,0,0,.64-.38V414a.73.73,0,0,0-.37-.64l-79.6-46.25a.44.44,0,0,0-.66.39v2.76A.85.85,0,0,0,334.64,371Z"/>
            <path class="cls-50" d="M414.49,405l-32.82-19a.29.29,0,0,0-.43.26v3.18a.59.59,0,0,0,.29.5l32.67,18.94a.43.43,0,0,0,.64-.38v-2.85A.73.73,0,0,0,414.49,405Z"/>
            <path class="cls-51" d="M334.22,359.16v2.77a.84.84,0,0,0,.42.73l42.71,24.87a.37.37,0,0,0,.55-.32v-3a.6.6,0,0,0-.31-.53l-42.71-24.87A.44.44,0,0,0,334.22,359.16Z"/>
            <path class="cls-52" d="M423.18,406.86l38.47,22.37a.44.44,0,0,0,.65-.38V426a.74.74,0,0,0-.37-.64L423.41,403a.45.45,0,0,0-.66.39v2.76A.84.84,0,0,0,423.18,406.86Z"/>
            <path class="cls-53" d="M423.18,398.52l38.47,22.36a.44.44,0,0,0,.65-.38v-2.85a.73.73,0,0,0-.37-.64l-38.52-22.39a.45.45,0,0,0-.66.39v2.76A.86.86,0,0,0,423.18,398.52Z"/>
            <path class="cls-54" d="M423.18,391.15l38.47,22.37a.44.44,0,0,0,.65-.38V399.67a.73.73,0,0,0-.37-.64l-38.52-22.39a.45.45,0,0,0-.66.39v13.38A.84.84,0,0,0,423.18,391.15Z"/>
            <path class="cls-55" d="M423.18,439l33.2,19.32A.44.44,0,0,0,457,458v-2.85a.73.73,0,0,0-.37-.64l-33.25-19.35a.45.45,0,0,0-.66.39v2.76A.86.86,0,0,0,423.18,439Z"/>
            <path class="cls-56" d="M423.18,430.67,461.65,453a.44.44,0,0,0,.65-.38V449.8a.73.73,0,0,0-.37-.64l-38.52-22.39a.45.45,0,0,0-.66.39v2.77A.84.84,0,0,0,423.18,430.67Z"/>
            <path class="cls-57" d="M423.18,422.32l38.47,22.37a.44.44,0,0,0,.65-.38v-2.86a.74.74,0,0,0-.37-.64l-38.52-22.38a.45.45,0,0,0-.66.39v2.76A.84.84,0,0,0,423.18,422.32Z"/>
            <path class="cls-58" d="M423.18,414l38.47,22.36a.44.44,0,0,0,.65-.38v-2.85a.73.73,0,0,0-.37-.64l-38.52-22.39a.45.45,0,0,0-.66.39v2.76A.86.86,0,0,0,423.18,414Z"/>
            <path class="cls-59" d="M334.22,309.36v2.77a.84.84,0,0,0,.42.73l70.94,41.33a.57.57,0,0,0,.85-.5v-2.44a1,1,0,0,0-.51-.89l-71-41.39A.44.44,0,0,0,334.22,309.36Z"/>
            <path class="cls-60" d="M334.64,322,462.5,396.41a.43.43,0,0,0,.64-.38v-2.86a.73.73,0,0,0-.36-.63l-127.9-74.46a.45.45,0,0,0-.66.39v2.77A.85.85,0,0,0,334.64,322Z"/>
            <path class="cls-61" d="M428.52,460.5c3.74,2.8,6.36,12.15,6.39,17.62v4.73a.52.52,0,0,0,.27.48c1.91,1.1,13.33,7.69,15.39,8.89a.62.62,0,0,0,.63,0,28.89,28.89,0,0,0,6.1-5.72,27.49,27.49,0,0,0,1.81-2.51l0,0c3.43-5.83,3.55-18.78,2.78-19.23l-28.58-16.57a1.58,1.58,0,0,0-.81-.27c-.34,0-.7.14-.78,1.08,0,.05,0,.09,0,.13v0A28.93,28.93,0,0,1,428.52,460.5Z"/>
            <path class="cls-62" d="M434.91,485.38v.69A13.08,13.08,0,0,0,435,488l10,5.63a3.89,3.89,0,0,0,3.49.14c.2-.08.41-.18.62-.28Z"/>
            <path class="cls-63" d="M327.36,457.94l52.28,30.49a1.82,1.82,0,0,0,2.64-1.07,56.63,56.63,0,0,1,23.63-31.66,17.3,17.3,0,0,1,4.37-2.05,1,1,0,0,0,.22-1.73l-8.3-4.86-28.6-16.7L359,421.85a5.22,5.22,0,0,0-3.71-.62,17.16,17.16,0,0,0-5.58,2.38A57.2,57.2,0,0,0,330.24,445a55.34,55.34,0,0,0-4,10A2.56,2.56,0,0,0,327.36,457.94Z"/>
            <path class="cls-64" d="M278.58,383.88l49.36,28.77L344,422a.92.92,0,0,0,1-.05c.3-.21.61-.41.93-.61a12.31,12.31,0,0,1,1.6-.91.23.23,0,0,1,.07-.06c.22-.13.07-.27,0-.33l0,0-19.74-11.49L282.3,382a16.38,16.38,0,0,0-3.59,1.77Z"/>
            <path class="cls-65" d="M272.83,388.18a.5.5,0,0,0,.06.8l55.22,32.18,9.64,5.61a1,1,0,0,0,1.14-.13l1.16-1A1,1,0,0,0,340,424l-12-7-52.18-30.42a1,1,0,0,0-1.1.07C274,387.17,273.43,387.66,272.83,388.18Z"/>
            <path class="cls-66" d="M268,394.57l64.38,37.51a1.13,1.13,0,0,0,1.4-.26c.36-.42.72-.82,1.09-1.23a.77.77,0,0,0-.15-1.2l-3.64-2.11-60.91-35.49a1.19,1.19,0,0,0-1.43.21l-1,1A1,1,0,0,0,268,394.57Z"/>
            <path class="cls-67" d="M263.18,400.15l64.76,37.75a1.13,1.13,0,0,0,1.51-.38l.82-1.19a.88.88,0,0,0-.25-1.27L265.37,397.4a1.13,1.13,0,0,0-1.46.31q-.5.66-1,1.35A.75.75,0,0,0,263.18,400.15Z"/>
            <path class="cls-68" d="M259.22,406.26s0,0,0,0l65.16,37.95a1,1,0,0,0,1.42-.46c.16-.34.35-.7.53-1l.24-.46a.66.66,0,0,0-.16-.89l-.06,0-65.53-38.15a.45.45,0,0,0-.61.16c-.42.7-.83,1.44-1.19,2.17,0,0,0,0,0,.05A.58.58,0,0,0,259.22,406.26Z"/>
            <path class="cls-69" d="M256.23,412.93l66,38.47a.37.37,0,0,0,.53-.21q.4-1.29.9-2.55a.45.45,0,0,0-.18-.55L257.63,409.7a.43.43,0,0,0-.61.21c-.34.84-.66,1.67-1,2.52A.42.42,0,0,0,256.23,412.93Z"/>
            <path class="cls-70" d="M253.2,424.73a1.16,1.16,0,0,0,.56,1.13L379.46,499a.42.42,0,0,0,.63-.38v-2.85a.72.72,0,0,0-.36-.64L254.31,422.14a.55.55,0,0,0-.81.4Q253.33,423.64,253.2,424.73Z"/>
            <path class="cls-71" d="M252.73,434.78a.9.9,0,0,0,.44.85l126.29,73.44a.36.36,0,0,0,.23.06.44.44,0,0,0,.4-.43v-2.86a.76.76,0,0,0-.1-.37.75.75,0,0,0-.26-.27L253.6,431.85a.52.52,0,0,0-.76.45C252.83,433.13,252.79,434,252.73,434.78Z"/>
            <path class="cls-72" d="M251.32,443.87a1,1,0,0,0,.45,1.09l125.4,72.91a.56.56,0,0,0,.82-.32c.22-.76.42-1.53.6-2.28a.73.73,0,0,0-.34-.8L252.64,441.42a.59.59,0,0,0-.86.41C251.65,442.51,251.49,443.19,251.32,443.87Z"/>
            <path class="cls-73" d="M248.56,452.15a1,1,0,0,0,.4,1.29L374,526.18a.55.55,0,0,0,.76-.25c.34-.66.64-1.35.94-2a.76.76,0,0,0-.31-.95L250.19,450.13a.67.67,0,0,0-.95.35C249,451,248.79,451.6,248.56,452.15Z"/>
            <path class="cls-74" d="M244.36,460.08a.65.65,0,0,0,.2.93l125,72.71a.58.58,0,0,0,.76-.19c.44-.62.87-1.26,1.29-1.9a.6.6,0,0,0-.19-.85l-125-72.72a.75.75,0,0,0-1,.29C245.08,458.93,244.72,459.51,244.36,460.08Z"/>
            <path class="cls-75" d="M239.06,467.08a.61.61,0,0,0,.13.95L363.9,540.57a.64.64,0,0,0,.75-.11c.54-.56,1.08-1.14,1.61-1.73a.61.61,0,0,0-.13-.93L241.5,465.32a.89.89,0,0,0-1.12.22C240,466.06,239.51,466.58,239.06,467.08Z"/>
            <path class="cls-76" d="M298.72,511.72a.67.67,0,0,0,0,1.1l58.12,33.78a.64.64,0,0,0,.7,0c.7-.51,1.38-1,2.05-1.56a.52.52,0,0,0-.05-.86l-58.2-33.83a1,1,0,0,0-1.13.13C299.75,510.87,299.24,511.3,298.72,511.72Z"/>
          </g>
          <path class="cls-15" d="M476.39,293a16.09,16.09,0,0,0-9.1,14.44V467.1c0,14.92-4.91,23.64-13,29a12.29,12.29,0,0,1-19.38-10v-8c0-5.37-.68-11.11-4.34-15.32a15.51,15.51,0,0,0-12.86-5.45c-4.2.41-8,2.56-11.44,5.06a54.24,54.24,0,0,0-20.65,31.84c-2.25,10.35-1.43,21.32-4.87,31.34-3.94,11.47-13,20.42-22.69,27.74-5.95,4.51-29.12,20.82-29.12,20.82l.09,1.05S348,562,357.26,555.2s18.81-15.68,23.37-26.28c5.71-13.3,3.42-28.06,8.07-41.77,3.5-10.32,11-19.24,20.15-25.17,4.12-2.68,8.67-4.92,13.41-3.65,4,1.08,7.09,4.43,8.85,8.19,2.59,5.53,2.81,11.37,2.91,17.34.08,4.6.64,9.26,4.59,12.22,7.18,5.37,12.3,3,15.88,1.12,1.14-.6,4.8-2.48,9.14-9.38,5.14-8.18,4.48-22.46,4.48-22.46s.24-156.09.24-158.08c0-1.76.62-9.56,8-13.34l26.25-15.16V278Z"/>
          <text class="cls-77" transform="matrix(1, 0.58, 0, 1, 338.97, 256.34)">P<tspan class="cls-78" x="8.91" y="0">R</tspan><tspan class="cls-79" x="17.99" y="0">OFILE</tspan></text>
          <g>
            <path class="cls-6" d="M432.49,320.38c0,3.9,3.16,8.88,7.06,11.12s7.06.9,7.06-3-3.16-8.87-7.06-11.12S432.49,316.48,432.49,320.38Z"/>
            <path class="cls-6" d="M423.57,340l31.95,18.38c0-8.81-7.15-20-16-25.09-4.39-2.53-8.39-3-11.29-1.81S423.57,335.59,423.57,340Z"/>
          </g>
          <polygon class="cls-12" points="423.96 355.19 425.47 359.13 428.86 361.58 426.4 362.55 426.98 366.26 423.96 362.92 420.93 362.76 421.51 359.72 419.06 355.92 422.44 357.38 423.96 355.19"/>
          <polygon class="cls-12" points="437.1 362.82 438.62 366.76 442 369.2 439.55 370.18 440.13 373.88 437.1 370.54 434.08 370.39 434.65 367.35 432.2 363.55 435.59 365.01 437.1 362.82"/>
          <polygon class="cls-12" points="450.25 370.44 451.76 374.39 455.15 376.83 452.7 377.81 453.28 381.51 450.25 378.17 447.22 378.01 447.8 374.98 445.35 371.18 448.74 372.64 450.25 370.44"/>
        </g>
        <g>
          <g class="cls-80">
            <path class="cls-81" d="M385.71,139.31a3,3,0,0,1-1-.36l-57.85-33.28a4.49,4.49,0,0,1-2.3-3.8V50.07a2.18,2.18,0,0,1,1.18-2,2.63,2.63,0,0,1,2.48.17L386,81.46a4.52,4.52,0,0,1,2.3,3.8v51.9a2.11,2.11,0,0,1-1.14,2A2.34,2.34,0,0,1,385.71,139.31Z"/>
          </g>
          <polygon class="cls-12" points="355.41 77.44 359.83 88.94 369.71 96.08 362.56 98.92 364.25 109.74 355.41 99.99 346.57 99.53 348.26 90.67 341.11 79.57 350.99 83.84 355.41 77.44"/>
        </g>
        <path class="cls-82" d="M536.48,217.46c1.49,3.34,0,6-3.36,6s-7.26-2.71-8.75-6,0-6.05,3.36-6.05S535,214.12,536.48,217.46Z"/>
        <path class="cls-82" d="M646.75,485.65c1.49,3.34,0,6.05-3.36,6.05s-7.26-2.71-8.74-6.05,0-6.06,3.35-6.06S645.26,482.3,646.75,485.65Z"/>
        <path class="cls-82" d="M254.68,121c1.48,3.34,0,6.06-3.36,6.06s-7.26-2.72-8.75-6.06,0-6,3.36-6S253.19,117.64,254.68,121Z"/>
        <g>
          <line class="cls-83" x1="413.59" y1="115.45" x2="413.59" y2="126.51"/>
          <line class="cls-83" x1="418.78" y1="123.63" x2="408.4" y2="117.66"/>
        </g>
        <g>
          <line class="cls-83" x1="582.95" y1="171.89" x2="582.95" y2="182.96"/>
          <line class="cls-83" x1="588.13" y1="180.07" x2="577.76" y2="174.1"/>
        </g>
        <g>
          <line class="cls-83" x1="288.64" y1="72.82" x2="288.64" y2="83.88"/>
          <line class="cls-83" x1="293.83" y1="81" x2="283.45" y2="75.03"/>
        </g>
        <g>
          <line class="cls-83" x1="682.37" y1="462.07" x2="682.37" y2="473.13"/>
          <line class="cls-83" x1="687.56" y1="470.24" x2="677.18" y2="464.27"/>
        </g>
        <g>
          <line class="cls-83" x1="633.16" y1="374.36" x2="633.16" y2="385.43"/>
          <line class="cls-83" x1="638.35" y1="382.54" x2="627.97" y2="376.57"/>
        </g>
        <g>
          <path class="cls-84" d="M618,581l105.57,60.95a6.23,6.23,0,0,1,0,10.79L567.35,742.88a18.54,18.54,0,0,1-18.43.07L442.4,682.45a6.23,6.23,0,0,1,0-10.81l157-90.67A18.57,18.57,0,0,1,618,581Z"/>
          <path class="cls-15" d="M618,552.7l108.69,62.08v4.27a6.16,6.16,0,0,1-3.12,5.39L567.36,714.61a18.54,18.54,0,0,1-18.43.07L442.41,654.19a6.17,6.17,0,0,1-3.15-5.26c-.06-2.15,0-4.39,0-4.39L599.42,552.7A18.57,18.57,0,0,1,618,552.7Z"/>
          <path class="cls-16" d="M618,548.43l105.57,61a6.23,6.23,0,0,1,0,10.79L567.35,710.35a18.54,18.54,0,0,1-18.43.06L442.4,649.92a6.23,6.23,0,0,1,0-10.81l157-90.68A18.57,18.57,0,0,1,618,548.43Z"/>
          <polygon class="cls-13" points="605.3 557.24 707.14 616.03 563.87 698.75 461.19 640.44 605.3 557.24"/>
          <g>
            <g>
              <ellipse class="cls-85" cx="568.7" cy="637.5" rx="34.29" ry="60.62" transform="translate(-142.16 1111.31) rotate(-81.95)"/>
              <path class="cls-86" d="M547,615.83c18.88-5.06,43.88.54,55.85,12.51s6.36,25.77-12.51,30.82-43.88-.54-55.85-12.51S528.16,620.89,547,615.83Z"/>
              <path class="cls-87" d="M555.12,623.92c11.83-3.17,27.5.34,35,7.84s4,16.14-7.84,19.31-27.5-.34-35-7.84S543.3,627.09,555.12,623.92Z"/>
            </g>
            <polygon class="cls-12" points="557.45 626.32 568.14 631.31 578.03 628.84 576.9 636.49 585.82 643.1 574.45 642.85 570.07 649.4 564.16 641.59 552.53 639.03 560.26 634.46 557.45 626.32"/>
          </g>
          <g>
            <path class="cls-88" d="M494.87,684v-4.27l23.44-14.41a2.41,2.41,0,0,0,.67-.43,4,4,0,0,0,1.29-1.76,5.62,5.62,0,0,0,.3-2.45l7.88-4.91a2.74,2.74,0,0,0,.39-.24,2.31,2.31,0,0,0,.3-.32,42.11,42.11,0,0,0,17.3,3c15.1-.45,27.22-7.79,27.65-16.57l0,0,0-.77v0l-.15-4.89v-.26l0,.05c-.43-9-13.17-16-28.6-15.5s-27.91,8.22-27.65,17.32l.15,4.93c.11,3.47,2,6.61,5.16,9.17l-5.94,3.7a4.33,4.33,0,0,0-2.34-.45,4,4,0,0,0-1.21.32,1.86,1.86,0,0,1-.19.11l-.24.15-.08.06c-.05,0-.05.05-.09.07l-29,17.85v4.27Z"/>
            <path class="cls-15" d="M514.53,623.68a10.51,10.51,0,0,0,.4,2.56c2.36,8.22,14.72,14.2,29.42,13.77s26.69-7.14,28.56-15.48c.19-.84.25-7.82.25-7.82s-7.7-15.33-29.82-15c-13.39.18-28.81,16.74-28.81,16.74S514.48,622,514.53,623.68Zm4.66-.14a9.7,9.7,0,0,1,1.92-5.9c3.68-5.19,12.24-9,22.31-9.28s18.84,3,22.82,7.95a9.64,9.64,0,0,1,2.26,5.78c.24,8-10.61,11.09-24.23,11.49S519.42,631.53,519.19,623.54Z"/>
            <g>
              <path class="cls-89" d="M518.06,618.43c.24,8.15,11.93,14.42,26.12,14s25.49-7.36,25.25-15.51-11.94-14.42-26.12-14S517.82,610.28,518.06,618.43Z"/>
              <path class="cls-90" d="M529,605.77c25.58.56,33.28,13.16,35.42,20.28,3.26-2.58,5.14-5.76,5-9.13-.24-8.15-11.86-14.13-26-13.72A43,43,0,0,0,529,605.77Z"/>
              <path class="cls-91" d="M520.59,618.75c.22,7.21,10.57,12.76,23.12,12.39s22.56-6.52,22.35-13.74c0-.21,0-.41,0-.62-.7,6.77-10.34,12.35-22.31,12.71-12.18.37-22.28-4.85-23.07-11.74A6.57,6.57,0,0,0,520.59,618.75Z"/>
            </g>
            <path class="cls-15" d="M517.12,613.35l6.65-6.92,19.2-4.74,19.44,3.61,7,6.51,1.84,4.06-2.79,1s-3.28-13.2-25.46-12.55-24.67,14-24.67,14l-2.84-.81Z"/>
            <path class="cls-92" d="M514.53,618.43a10.51,10.51,0,0,0,.4,2.56c2.36,8.21,14.72,14.2,29.42,13.77s26.69-7.14,28.56-15.48a10.06,10.06,0,0,0,.25-2.57c-.28-9.5-13.63-16.81-29.82-16.34S514.25,608.93,514.53,618.43Zm4.66-.14a9.68,9.68,0,0,1,1.92-5.9c3.68-5.19,12.24-9,22.31-9.28s18.84,3,22.82,7.95a9.64,9.64,0,0,1,2.26,5.78c.24,8-10.61,14.79-24.23,15.19S519.42,626.28,519.19,618.29Z"/>
            <path class="cls-6" d="M514.53,618.43a10.51,10.51,0,0,0,.4,2.56c2.36,8.21,14.72,14.2,29.42,13.77s26.69-7.14,28.56-15.48a10.06,10.06,0,0,0,.25-2.57c-.28-9.5-13.63-16.81-29.82-16.34S514.25,608.93,514.53,618.43Zm4.66-.14a9.68,9.68,0,0,1,1.92-5.9c3.68-5.19,12.24-9,22.31-9.28s18.84,3,22.82,7.95a9.64,9.64,0,0,1,2.26,5.78c.24,8-10.61,14.79-24.23,15.19S519.42,626.28,519.19,618.29Z"/>
            <path class="cls-93" d="M511,638.76l.56.83h0l2.51,3.72.65,1,11-6.88h0a2.06,2.06,0,0,0,.4-.25,2.38,2.38,0,0,0,.76-1,3,3,0,0,0,.17-.68h0a3.8,3.8,0,0,0-.36-2.18,3.73,3.73,0,0,0-1.89-1.87,2.47,2.47,0,0,0-1.25-.19,2,2,0,0,0-.71.2l-.12.06-.15.09a.1.1,0,0,0-.05,0Z"/>
            <path class="cls-6" d="M511,638.76l.56.83h0l13.26-8.23a2.47,2.47,0,0,0-1.25-.19,2,2,0,0,0-.71.2l-.12.06-.15.09a.1.1,0,0,0-.05,0Z"/>
            <path class="cls-15" d="M514.09,643.31l.65,1,11-6.88h0a2.06,2.06,0,0,0,.4-.25,2.38,2.38,0,0,0,.76-1,3,3,0,0,0,.17-.68Z"/>
            <path class="cls-94" d="M476,658l1.6,2.82,4.11,7.25,33.53-20.72h0a3.28,3.28,0,0,0,.7-.43,4.14,4.14,0,0,0,1.33-1.84,6.42,6.42,0,0,0-.34-5,7,7,0,0,0-1.13-1.7h0a5.22,5.22,0,0,0-4.33-1.88,3.69,3.69,0,0,0-1.25.34l-.2.11-.26.16-.09.06-.07.06Z"/>
            <path class="cls-95" d="M476,658l1.6,2.82,4-1.21,34.19-21.21v0h0a5.22,5.22,0,0,0-4.33-1.88,3.69,3.69,0,0,0-1.25.34l-.2.11-.26.16-.09.06-.07.06Z"/>
            <path class="cls-96" d="M474.25,665.26c1.39,2.9,4.39,4.35,6.71,3.25h0a4.05,4.05,0,0,0,.69-.44,4.14,4.14,0,0,0,1.33-1.84,6.42,6.42,0,0,0-.33-5c-1.15-2.4-3.41-3.81-5.47-3.58A3.58,3.58,0,0,0,476,658l-.21.11-.26.16-.09.06C473.51,659.66,473,662.61,474.25,665.26Z"/>
          </g>
          <path class="cls-6" d="M573.16,590.65l33.4,19.21c10.62-8.12,8.83-14.5,1.63-19.44C596.84,582.63,583.81,584.47,573.16,590.65Z"/>
          <g class="cls-97">
            <path class="cls-15" d="M643.29,631.46a1.06,1.06,0,0,1-.51-.14L610,612.2a1,1,0,1,1,1-1.78l32.79,19.13a1,1,0,0,1,.38,1.4A1,1,0,0,1,643.29,631.46Z"/>
            <path class="cls-15" d="M647.05,629.31a1.1,1.1,0,0,1-.52-.14l-32.79-19.12a1,1,0,0,1,1-1.78l32.79,19.12a1,1,0,0,1-.51,1.92Z"/>
            <path class="cls-15" d="M650.8,627.15a1,1,0,0,1-.51-.13L617.5,607.9a1,1,0,1,1,1-1.78l32.79,19.12a1,1,0,0,1-.51,1.91Z"/>
            <path class="cls-15" d="M654.56,625a1.08,1.08,0,0,1-.52-.13l-32.79-19.13a1,1,0,1,1,1-1.77l32.79,19.12a1,1,0,0,1-.51,1.91Z"/>
            <path class="cls-15" d="M658.31,622.85a1,1,0,0,1-.51-.14L625,603.59a1,1,0,1,1,1-1.77l32.79,19.12a1,1,0,0,1-.51,1.91Z"/>
          </g>
          <path class="cls-6" d="M620.7,576.74c-4.19-2-10.11-1.08-13.23,2.11s-2.27,7.4,1.91,9.42,10.11,1.08,13.23-2.11S624.88,578.76,620.7,576.74Z"/>
        </g>
        <g>
          <polygon class="cls-21" points="609.33 431.18 609.33 497.87 604.82 500.32 542.68 453.6 532.98 392.25 537.49 389.8 609.33 431.18"/>
          <polygon class="cls-20" points="609.33 431.18 609.33 497.87 604.82 500.32 542.68 453.6 604.82 433.63 609.33 431.18"/>
          <polygon class="cls-12" points="604.82 433.63 604.82 500.32 532.98 458.95 532.98 392.25 604.82 433.63"/>
          <g>
            <polygon class="cls-6" points="541.91 414.22 541.91 419.78 567.87 448.88 593.88 449.5 593.88 443.97 541.91 414.22"/>
            <polygon class="cls-6" points="567.87 452.12 541.91 423.01 541.91 451.44 593.88 481.19 593.88 452.74 567.87 452.12"/>
          </g>
        </g>
        <g>
          <polygon class="cls-21" points="290.66 215 290.66 261.97 285.66 264.74 241.91 231.84 235.07 188.64 240.07 185.86 290.66 215"/>
          <polygon class="cls-20" points="290.66 215 290.66 261.97 285.66 264.74 241.91 231.84 285.66 217.78 290.66 215"/>
          <polygon class="cls-12" points="285.66 217.78 285.66 264.74 235.07 235.6 235.07 188.64 285.66 217.78"/>
          <polyline class="cls-98" points="247.79 221.66 254.63 235.22 274.36 220.78"/>
        </g>
        <g>
          <g>
            <path class="cls-99" d="M147.15,512.29s6.07,1.11,7.39.08,7.16-6.63,8-7.44,12.31-3.61,13.27-3.61,5.08.44,5,1-7.28,7.35-8.1,8-3.42,2.81-3.84,4.13-4.18,5.8-6.91,6a21.82,21.82,0,0,1-3.34-.19l-13.45,1.92"/>
            <path class="cls-100" d="M186.62,491.47s-2.8,2.89-4,3.27a9.6,9.6,0,0,1-2.14.38c-1.22.18-6.86,1.17-9.39,2.71-1.59,1-5.06,5.28-5.52,6.4a.8.8,0,0,0-.09.39.66.66,0,0,0,.23.38c1.31,1.2,3.06-.09,4-1.07.54-.55,2.39-2.08,2.66-1.65.32,2.35-1.64,7.06-3,8.63-1.88,2.12-7.15,4.46-6.23,5.5.36.41,1.41.72,3.4.26,2.38,0,5.6,0,7.65-1.33,2.49-1.55,4-3.76,5.83-5.78,1.25-1.4,2.25-3.24,4-5a63.86,63.86,0,0,1,6.48-4.27Z"/>
            <path class="cls-6" d="M198.45,378.91c-11.6,1.06-14.85,6.82-16.86,11-4,8.4-2.05,20.31-1.91,25.15.51,17.24,2.22,34.43,3.92,51.59l3.27,32.9a5.69,5.69,0,0,0,.47,2.05c1,1.92,3.95,2,5.65.63s2.45-3.53,3.08-5.6c2.74-8.91,4.91-18.18,4.32-27.49-.61-9.68-4.18-18.91-5.83-28.47-2.17-12.59-1-25.75-4.81-37.95"/>
            <path class="cls-101" d="M195.16,411.14c.62,2.89-11-2.92-10.47,0,.46,2.53,2.61,36,3.07,40.1.75,6.79-1.68,15.77-1.1,22.57a50.32,50.32,0,0,0,2,11.32c.46,1.4,1.16,2.91,2.54,3.41a3.61,3.61,0,0,0,2.11,0c2.91-.77,4.59-3.73,5.95-6.42"/>
            <path class="cls-102" d="M266,656.65c-7.75-16.09-25.92-25.77-41.58-32.58a88.46,88.46,0,0,0-24-6.17c-8.06-1-16.85-1.08-23.57,3.47s-9.65,15.28-3.82,20.94c2.66,2.58,6.42,3.58,9.65,5.37,6.41,3.57,10.48,10.08,14.83,16,6.1,8.26,13.35,15.83,22.21,21s19.46,7.8,29.54,5.89c6.43-1.21,12.72-4.46,16.32-9.92C270.24,673.65,269.64,664.19,266,656.65Z"/>
            <path class="cls-103" d="M253.41,645.46s-.83,3.28-1.3,6-.62,6.31-.94,9.23a39.63,39.63,0,0,1-4.29,11.64,11.42,11.42,0,0,1-6.12,4.36,19.81,19.81,0,0,1-9.42-.19,4.53,4.53,0,0,1-2.41-2.41"/>
            <path class="cls-103" d="M181.3,634.77c0,1.82,2.71,3.09,5.5,3.32a27.87,27.87,0,0,0,9-1.26,44.68,44.68,0,0,0,7-2.64,9,9,0,0,1,5.14-.46s0,.3,0,.64a23.64,23.64,0,0,0,12.53-2.1l0,0s.05-1.44,0-2.67c-.06-1.06-.25-2.62-.25-2.62l-38.95,6.51Z"/>
            <path class="cls-104" d="M227.83,671c0,.34.09.68.15,1a4.88,4.88,0,0,0,3.35,3.94c3.66,1.26,10.43.59,13.77-3s5.7-12.94,5.7-18.52a24.84,24.84,0,0,1,2.92-10.73H238.56a3.39,3.39,0,0,0-.36.5c-2.62,3.65-9.43,17.57-10.09,22.06A21.29,21.29,0,0,0,227.83,671Z"/>
            <path class="cls-105" d="M227.83,671a.87.87,0,0,0,.15-.38c.66-3.62,4.13-10.6,6-14.28S239.22,646,239.22,646s-.46-.8-1-1.82c-2.62,3.65-9.43,17.57-10.09,22.06A21.29,21.29,0,0,0,227.83,671Z"/>
            <path class="cls-106" d="M228,672a4.89,4.89,0,0,0,3.35,4c3.66,1.25,10.43.58,13.76-3S250.8,660,250.8,654.4a24.77,24.77,0,0,1,2.92-10.72h-6.16l-.5,3.2s-.17,13-3.24,19.35-8.7,7.74-11.14,7.58-4-.49-4.69-1.78C228,672,228,672,228,672Z"/>
            <path class="cls-104" d="M181.29,634.17a2.41,2.41,0,0,0,1.37,2c2.54,1.16,7.86.78,11.1,0s9.27-3.64,12.46-4,9.38-.89,10.93-1.33,3.19-1.29,3.53-4.3a9.71,9.71,0,0,0-1.17-5.48l-2.51.15-14.74,1-.35,0-7.52,2.69c-2.41.84-7.43,1.61-10.73,4.68a10.72,10.72,0,0,0-1.33,1.48l0,0A4.57,4.57,0,0,0,181.29,634.17Z"/>
            <path class="cls-105" d="M182.33,631c2.41-2.06,7.45-3.6,11.57-4.66s8.19-2.37,8.19-2.37.09-.8.17-1.84l-.35,0-7.52,2.69c-2.41.84-7.43,1.61-10.73,4.68A10.72,10.72,0,0,0,182.33,631Z"/>
            <path class="cls-106" d="M181.29,634.16a2.38,2.38,0,0,0,1.36,2c2.54,1.16,7.87.78,11.11,0s9.27-3.64,12.45-4,9.39-.89,10.94-1.33,3.19-1.28,3.53-4.3A9.67,9.67,0,0,0,219.5,621l-2.5.16.08.79s2.31,3.21.77,5.63-7.28,2.07-10.78,2.48-8.53,3.26-13.38,4.1-10.68,1.53-12.38,0Z"/>
            <path class="cls-95" d="M192.63,541.65c.6,2.46,1.1,4.87,1.51,7.18a.59.59,0,0,1,0,.13c.4,2.28.72,4.46,1,6.5a1.33,1.33,0,0,0,0,.21c0,.23.1.59.17,1.12s.16,1,.23,1.54c.65,4.19,1.82,12.83,2.84,24.58a1.23,1.23,0,0,1,0,.27c.42,3.9.78,9.19,1.08,14.8.08,1.29.16,2.6.21,3.93.36,7.33.65,14.82.82,20.3a3.83,3.83,0,0,0,2,3.26,6.89,6.89,0,0,0,3.2.85,23.31,23.31,0,0,0,7.88-1,16.73,16.73,0,0,0,4.44-2.26,4.21,4.21,0,0,0,1.69-3.54c-.14-4.65-.42-17,.07-29.25.61-15.6,1.82-45,1.82-45L216.23,496,206,493.76c.53-2.86,1.1-6.14,1.5-8.45.3-1.78.51-3,.51-3H188s0,.28,0,.83C187.74,488.4,186.69,517.86,192.63,541.65Z"/>
            <path class="cls-107" d="M192.63,541.65c.6,2.46,1.1,4.87,1.51,7.18-.19-1.69-2-18-2.86-26.25-.87-8.78.55-36.19.55-36.19s-1.74-1.48-3.85-3.24C187.74,488.4,186.69,517.86,192.63,541.65Z"/>
            <path class="cls-94" d="M201.35,489.92a306.77,306.77,0,0,0,7.32,57.53c4.15,17.62,5,52.77,5,77.83a17.06,17.06,0,0,0,4.44-2.26,4.21,4.21,0,0,0,1.69-3.54c-.14-4.65-.42-17,.07-29.25.61-15.6,1.82-45,1.82-45L216.23,496,206,493.76c.53-2.86,1.1-6.14,1.49-8.45Z"/>
            <path class="cls-95" d="M210,492.38s-1.69,35.67,11.73,74.82v0c2.5,6.26,4.44,11.32,5,13.46,1.11,4.42,6.18,48.76,7.39,59.47a11.61,11.61,0,0,0,1.69,4.91c1.84,2.93,4.49,5.44,9.28,5a21.74,21.74,0,0,0,4-.79,30.25,30.25,0,0,0,5.16-2.09,3.89,3.89,0,0,0,2.12-3.58c-.34-11.47-1.84-61.78-2.79-68.05-1.06-7.09-5.42-22.56-7.46-50.94a30.42,30.42,0,0,1,1.27-12.15,32.51,32.51,0,0,0,.32-19.75l-3,1.12c.06-2.69.17-3.9.17-3.9h-1l-35,.74Z"/>
            <path class="cls-94" d="M232.69,513.61c-1,10,10.33,54.27,11.52,65.64s4.89,70,4.89,70h0a30.25,30.25,0,0,0,5.16-2.09,3.89,3.89,0,0,0,2.12-3.58c-.34-11.47-1.84-61.78-2.79-68.05-1.06-7.09-5.42-22.56-7.46-50.94a30.42,30.42,0,0,1,1.27-12.15,32.51,32.51,0,0,0,.32-19.75l-3,1.12c.06-2.69.17-3.9.17-3.9h-1c-6.35,3.51-11.74,6.87-11.74,6.87A59.13,59.13,0,0,1,232.69,513.61Z"/>
            <path class="cls-108" d="M247.94,491.81a21.86,21.86,0,0,1,.56,2.73,1.34,1.34,0,0,1-.56,1.3,38.51,38.51,0,0,1-7.55,3.59c-4.9,1.86-11.4,2.14-16.09,1.71-2-.18-21.32-4.45-32.87-11.76a8.65,8.65,0,0,1-3.86-8.75v-.06C188,478.29,247.94,491.81,247.94,491.81Z"/>
            <path class="cls-6" d="M190.35,440.5l.18,6.44a70.37,70.37,0,0,1-1.05,14.35c-.7,4-1.56,8.95-2.11,12.51-1.1,7.07.82,12.21,4.34,14.33a.15.15,0,0,1,.08,0c11.33,7,24.45,10.22,31.46,11.55,1.12.2,2.26.36,3.4.45a29.73,29.73,0,0,0,7.3-.3,22.27,22.27,0,0,0,3-.65l.91-.28a13.27,13.27,0,0,0,3.06-1.41c4.62-2.95,5-5.19,5.3-7.81.5-4.39-1.73-9.76-2.6-14-2.86-14,4.32-26.48,8.29-39.37,1.84-6,3.63-12,5.11-18.05.91-3.71,2.23-8,1.84-11.85l0-.24a17.62,17.62,0,0,0-.65-2.75c-.77-2.18-3.11-4.76-5.76-7.13a66.84,66.84,0,0,0-7.77-5.91l-.27-.17a59.67,59.67,0,0,0-6-3.45c-2-1-4.57-2.16-8.19-3.58-1.29-.52-2.61-1-4-1.39-2.48-.76-5-1.38-7.6-1.91-4-.84-8-1.48-11.83-2.22-.66,0-1.33,0-2,.06-4.75.31-13.86,2.85-13.86,2.85s-4.18,7.81-6.49,12.39C180.8,400.26,188.29,427.2,190.35,440.5Z"/>
            <path class="cls-101" d="M253.73,403.78c-5.89-10.1-20.62-15-23.19-15.88-7.91,11.65-17.07,11.92-17.07,11.92l-.39-5-2.53,1.83-1.7,27-2.92-6.77,2.24-22.93,8.58-11,9.48-1.14c1.35.42,2.67.87,4,1.39a75.13,75.13,0,0,1,11.32,5.28l.25.15c.3.18.61.36.9.55l1,.64.64.41.27.17a66.84,66.84,0,0,1,7.77,5.91v0c2.65,2.35,5,4.93,5.76,7.11q.08.21.15.48a19.9,19.9,0,0,1,.5,2.27h0C260.15,414.34,255.44,414.15,253.73,403.78Z"/>
            <path class="cls-101" d="M208.92,390.67a26.19,26.19,0,0,0-3.55,3.82c-1.05,1.38-1.77,2.94-2.73,4.34a19.46,19.46,0,0,1-.18-4.39,29.43,29.43,0,0,1,.33-4.69,22,22,0,0,1,3.15-8.3c.48.41.51,1.12.74,1.71.35.94,1.24,1.62,1.55,2.58s0,2.14.3,3.15"/>
            <path class="cls-99" d="M228.24,368.93v10.66s-10.9,7.87-16.69,6.73c-2.49-.49-3.8-3.68-3.28-8.18l5.27-1.06Z"/>
            <path class="cls-6" d="M210.25,385.7l-6.2,7.28s-.24-8.74,3.91-13.2,4.2-.59,4.2-.59S208.34,383.6,210.25,385.7Z"/>
            <path class="cls-100" d="M198.14,354.76a61.6,61.6,0,0,0,1,17.08c1.84,8.16,2.4,10,5.69,11.44s6.25,1.61,11.78-1.94a27.78,27.78,0,0,0,8.55-9.35s.79.52,2.77-1.71c3.09-3.48,3.68-5.23,3.68-10a33,33,0,0,0-4.87-16.88c-3.68-6.19-15-4.21-20.13-1.58S199.11,349.47,198.14,354.76Z"/>
            <path class="cls-109" d="M193.67,355.15c5.65,10,19.73,3.42,19.73,3.42,1,4.34,4.07,4.74,5.53,5.53s1.77,5,1.77,5H222a30.59,30.59,0,0,1,.72-6.34c.67-2.1,4.61-3.73,6.58-.64,1.78,2.77-.26,5.86-1.44,8.15-.38,3.64.36,5.16.36,5.16a17.4,17.4,0,0,0,3.58-6.47c1.44-4.34,2.51-13.42,0-23.16a10.58,10.58,0,0,0-1.15-2.81c-4.32-7.29-16.65-8.72-21.48-7.07-4.17,1.43-14.5,6.13-16.43,12.8A8.11,8.11,0,0,0,193.67,355.15Z"/>
            <path class="cls-95" d="M193.25,554.31c.08.54.15,1.05.23,1.54C193.4,555.24,193.33,554.73,193.25,554.31Z"/>
            <path class="cls-95" d="M193,553c0,.07,0,.13,0,.21A1.76,1.76,0,0,0,193,553Z"/>
            <path class="cls-110" d="M236.84,428.81s2.19-9.1,1.87-15.1-3.63-.63-4,4.26-3.2,15.48-3.2,15.48"/>
            <path class="cls-6" d="M228.24,378.51a10.09,10.09,0,0,1,1.19,2.2,21.25,21.25,0,0,1,.75,2.48s-4.46,9.17-16.71,13.12l-1.39-9.91S222.82,384.94,228.24,378.51Z"/>
            <path class="cls-101" d="M234.92,463c-.24-1.19-.4-1.89-.4-1.89L242,453s1.24,12.79,1.68,17.06,5.64,17.77,5.41,22.51S234,499.87,234,499.87s4-9.88,3.81-17.55a88.07,88.07,0,0,0-1.51-12.43c-.42-2.38-.49-9.64-3.65-9.77a6.73,6.73,0,0,0-2.36.49c-4,1.39-9.65,7.68-13.62,9.25-3.66,1.45-9.1,6.44-12.22,2.84,3.19-4.25,12.81-15.26,13.58-16.57,1-1.65,14.73-33.13,17.12-37.17,1.55,9.29,2.82,20.77,4.36,30.06"/>
            <path class="cls-95" d="M212.08,386.4l1,7.08-3.51,2.83-3.65-1.16-.19-4.14,4.52-5.31A3,3,0,0,0,212.08,386.4Z"/>
            <path class="cls-95" d="M209.52,397.9c0-.53,0-1.06,0-1.59l-3.64-1.17c.09,0-2.52,13.91-2.68,14.95-2.09,13-3.93,26-5.7,39-.81,6-1.44,10.67-1.67,12.51a3.52,3.52,0,0,0,.19,1.7l3.7,9.69c.19.53,9.12-8.68,9.06-9.57C208.72,461.54,209,415.61,209.52,397.9Zm-8.05,24.44h.05C201.47,422.49,201.45,422.53,201.47,422.34Z"/>
            <path class="cls-111" d="M193.67,355.15c5.65,10,19.73,3.42,19.73,3.42,1,4.34,4.07,4.74,5.53,5.53s1.77,5,1.77,5H222a30.59,30.59,0,0,1,.72-6.34c.67-2.1,4.61-3.73,6.58-.64,1.78,2.77-.26,5.86-1.44,8.15-.38,3.64.36,5.16.36,5.16a17.4,17.4,0,0,0,3.58-6.47c1.44-4.34,2.51-13.42,0-23.16a10.58,10.58,0,0,0-1.15-2.81c-2.37,2-9.18,7.55-16.3,10.54-8.86,3.72-15.72,2.92-17.94,1s-3.37-3.43-3.65-5.82l0,0A8.11,8.11,0,0,0,193.67,355.15Z"/>
            <path class="cls-6" d="M234.76,418c-4.58,13.79-8.22,28.06-15.83,41.64-14,11.32-24.34,23.64-35.43,34.12,2.12,4,2.07,6.32,4.19,10.31,3.23-.77,30.92-20.32,42.49-27.81s15-14.19,20.3-26.9c4.87-11.64,9-30.54,8.3-43.14"/>
            <path class="cls-101" d="M258.78,406.19l-4.19.53c-.05,12.44-6.06,31.89-10.55,42.61-5.32,12.71-8.72,19.41-20.29,26.9-9.07,5.88-28,19.13-37.35,25a23.26,23.26,0,0,0,1.29,2.84c3.23-.77,30.92-20.32,42.49-27.81s15-14.19,20.3-26.9C255.35,437.69,259.47,418.79,258.78,406.19Z"/>
            <path class="cls-99" d="M164.39,506.52c.54.05,3.77-1.7,4.52-2s5.37-1.63,5.6-1.37c.54.61.43,2.44-1.34,3.3a34.58,34.58,0,0,0-3.49,2s-3.24,5.59-8.73,7.53"/>
            <path class="cls-112" d="M173.17,506.47c-1.18.63-2.32,1.33-3.44,2.06l0,0A19.21,19.21,0,0,1,166,513a16.65,16.65,0,0,1-2.37,1.75A12.66,12.66,0,0,1,161,516a16.58,16.58,0,0,0,4.9-3.13,23.47,23.47,0,0,0,3.76-4.44v0h0A26.18,26.18,0,0,1,173.17,506.47Z"/>
            <path class="cls-112" d="M164.73,506a1.21,1.21,0,0,0,.93-.06,6.08,6.08,0,0,0,.89-.35,17.77,17.77,0,0,1,1.8-.72c1.23-.43,2.45-.86,3.71-1.21-1.19.54-2.4,1-3.61,1.44-.61.22-1.22.4-1.83.67a7.17,7.17,0,0,1-.93.29A1.27,1.27,0,0,1,164.73,506Z"/>
          </g>
          <g>
            <path class="cls-113" d="M148.41,512.8l3.05-.51s2,1.32,2.37,2.54a13.07,13.07,0,0,1-.18,6.59L144,524.3"/>
            <path class="cls-114" d="M65.61,474.73s24,28.94,29.28,29.94,54.69,7.62,54.69,7.62a4.91,4.91,0,0,1,3.1,3.74c.31,2.76-1.46,7.14-1.46,7.14s-51.91,6.13-56.56,4.9-48.21-38.66-48.21-38.66"/>
            <path class="cls-13" d="M96.14,521.3c-3.84-1-34.33-26.82-44.73-35.69l-5,3.8S90,526.85,94.66,528.07s56.56-4.9,56.56-4.9a27.77,27.77,0,0,0,.91-2.77C147,520.61,100.53,522.45,96.14,521.3Z"/>
            <path class="cls-115" d="M151,742.26a97,97,0,0,0,1.8-16.81c.24-9.67-2.17-20-12.95-21.7-16.87-2.69-34.78-.48-51.55,2.15-13.87,2.18-32,2.17-43.25,11.6-17.35,14.5,5.1,32.94,17.19,41.24C85.41,774.63,119,794.85,141,765.66,146.19,758.8,149.29,750.72,151,742.26Z"/>
            <path class="cls-103" d="M57.35,746.17v.15a1,1,0,0,0,0,.18.48.48,0,0,1,.05.22c.28,1,1.4,3.51,5.68,4.26.25,0,.53.07.81.1a1.77,1.77,0,0,0,.32,0,27.62,27.62,0,0,0,3.21,0c.35,0,.7,0,1-.1,4.65-1,9-4.53,10.11-5.51l.3-.27v-.88s3.08-2,4.21-2.73c3.43-2,8.36-3.75,13.06-6.08a13.89,13.89,0,0,0,3.31-2.23c.15-.15.3-.33.45-.45a3.63,3.63,0,0,0,.27-.28c.1-.12.18-.27.28-.4s.37-.52.53-.75.15-.27.2-.37l.17-.35a2.84,2.84,0,0,0,.13-.38v0a6.35,6.35,0,0,0,.27-1.78v-3.08L73.12,737.26l-15.67,5.86Z"/>
            <path class="cls-104" d="M74.41,724.79A114.08,114.08,0,0,0,87,723.23c7.82-1.34,13.22-1.72,14.23.72s1.2,4.9-5.78,9.68-12.4,5.28-18,9.79c-4.14,3.34-7.88,4.13-12,4.42s-7-1.32-7.9-3c-2.11-4,.08-11.43.08-11.43"/>
            <path class="cls-103" d="M85.55,750.73l0,3.88a3.65,3.65,0,0,0,2,3.36,5.52,5.52,0,0,0,1.7.47c4.85.55,12.32-.6,12.32-.6v-1.43s2.65-.3,10.48-1.27a46.75,46.75,0,0,0,16.22-4.83,3.5,3.5,0,0,0,1.87-3.12v-2.84l-30.79,5.43Z"/>
            <path class="cls-104" d="M107.15,737.09s3.43,3.22,7.46,3.22,11.89-.1,13.91,1.31a3.29,3.29,0,0,1,1.57,2.52,5,5,0,0,1-1.07,3.13c-1.51,2.21-11.69,5.54-19.35,6.15s-8.06.5-11.69,1.1-7.41.89-9.69-.24c-4-1.95-4.22-7.92-1.8-11.85S107.15,737.09,107.15,737.09Z"/>
            <path class="cls-100" d="M65.33,451.94l-.62,1.45,1,4.81L81,465.91l.9-.13,2.45-.3,3.86-.5v-5.31a7,7,0,0,1,4-6.45l.17-.08A7.52,7.52,0,0,0,95,451.39l.22-.23c3-3.13,5.58-10.16,4.83-25.56-.15-2.67-.75-7.33-2-9.71-2.23-4.28-7-7.11-16.73-4.43C65,416,57.92,423.35,57.1,429.73S65.33,451.94,65.33,451.94Z"/>
            <path class="cls-99" d="M88.19,465v-5.31a7,7,0,0,1,4-6.45c-.8.35-3.27,1.53-6.56,3.29-1.32.71-1.28,4.94-1.28,9Z"/>
            <g>
              <g>
                <path class="cls-116" d="M112.88,492.39l32.48,16.69,14.81-47.42a3.59,3.59,0,0,0-1.72-4.22L131.29,443.5a2.58,2.58,0,0,0-3.65,1.63Z"/>
                <path class="cls-12" d="M115,491.37l28.94,15,13.79-44c.54-2,.45-2.88-1.58-3.89L130.8,445.3a1.15,1.15,0,0,0-1.62.73Z"/>
                <path class="cls-117" d="M140.86,466.62l9,4.63a.44.44,0,0,0,.61-.27l2.47-8.2a.46.46,0,0,0-.22-.55l-9-4.63a.44.44,0,0,0-.61.28l-2.47,8.19A.46.46,0,0,0,140.86,466.62Zm-6.59,20.73,6.95,3.59a.34.34,0,0,0,.47-.22l5.45-17.41a.37.37,0,0,0-.18-.43L140,469.3a.34.34,0,0,0-.48.21l-5.44,17.42A.36.36,0,0,0,134.27,487.35Zm-4.05-15.61,5.33,2.75a.26.26,0,0,0,.36-.16L136,474a.28.28,0,0,0-.13-.33l-5.33-2.75a.26.26,0,0,0-.36.16l-.08.35A.28.28,0,0,0,130.22,471.74Zm4.4,4.51a.46.46,0,0,0,.65-.29l.14-.6a.49.49,0,0,0-.23-.58l-9.43-4.87a.46.46,0,0,0-.65.29l-.14.61a.48.48,0,0,0,.23.57m-.53,1.76,9.43,4.87a.45.45,0,0,0,.64-.29l.15-.6a.48.48,0,0,0-.24-.58l-9.43-4.87a.46.46,0,0,0-.64.29l-.15.61A.5.5,0,0,0,124.66,473.14Zm-.53,1.76,9.43,4.87a.45.45,0,0,0,.64-.29l.15-.6a.51.51,0,0,0-.24-.58l-9.43-4.87a.45.45,0,0,0-.64.29l-.15.6A.48.48,0,0,0,124.13,474.9Zm-.54,1.76,9.44,4.87a.46.46,0,0,0,.64-.29l.14-.61a.48.48,0,0,0-.23-.57l-9.43-4.87a.46.46,0,0,0-.65.29l-.14.6A.49.49,0,0,0,123.59,476.66Zm-.53,1.76,9.43,4.87a.45.45,0,0,0,.64-.29l.15-.61a.49.49,0,0,0-.24-.58L123.61,477a.45.45,0,0,0-.64.29l-.14.6A.49.49,0,0,0,123.06,478.42Zm5.27-17.23,9.83,5.07a.47.47,0,0,0,.67-.3l2.71-9a.5.5,0,0,0-.24-.6l-9.84-5.07a.47.47,0,0,0-.67.3l-2.71,9A.53.53,0,0,0,128.33,461.19Z"/>
              </g>
              <path class="cls-100" d="M138.42,499.49l5.23,4.36,1,.82s1.2-5,3.32-6.92a13.44,13.44,0,0,1,4.06-1.83,3.23,3.23,0,0,0,1.74-1.17c1-1.4,2.53-4.47,1.74-9.8a5.94,5.94,0,0,0-.68-2.2.06.06,0,0,1,0,0c-.65-1.11-1.45-1.08-1.45-1.08s-3.54,2.52-4.56,3.27c-.85.63-1.92,1.85-2.75.93-.45-.46,2.14-3.73,2.85-5.22s-.66-3.1-1.27-2.53a36,36,0,0,0-5.69,9C140.46,490.93,138.42,499.49,138.42,499.49Z"/>
              <path class="cls-99" d="M142.45,500.12l1.2,3.73,1,.82s1.2-5,3.32-6.92a13.44,13.44,0,0,1,4.06-1.83,3.23,3.23,0,0,0,1.74-1.17c1-1.4,2.53-4.47,1.74-9.8a5.94,5.94,0,0,0-.68-2.2.06.06,0,0,1,0,0s0,.91-1.49,2.21a36.09,36.09,0,0,1-4.61,3.1c-1,.65-2.59,3-3.56,5.35S142.45,500.12,142.45,500.12Z"/>
              <path class="cls-113" d="M145.62,504.56l.92-2.93a2.27,2.27,0,0,0-.12-1.68,13.68,13.68,0,0,0-2.39-3.7,3.6,3.6,0,0,0-4.39-.71,6.53,6.53,0,0,0-1.14,2.2,7.55,7.55,0,0,0-.22,2.62c.08.19,1.94,2.86,2.16,3.1A51.51,51.51,0,0,0,145.62,504.56Z"/>
            </g>
            <path class="cls-95" d="M49.64,597.53c3.63,19.83,6.23,44.41,6.23,44.41s-6.06,49.24.75,92.12c.3,2,1,6.31,3.61,8a9.76,9.76,0,0,0,8.41,0l.37-.2c10.17-5.56,9.09-12.77,10.57-17.5,0-19.07-2-66,2-76.33l3.63-41.6-1.32-29.74H47.51v.1l-.18-.1S44.23,584.62,49.64,597.53Z"/>
            <path class="cls-94" d="M60.75,598.33c3.43,11.27,7.84,40.68,8.76,47.87,0,0-3.38,56.65-.5,95.6,10.17-5.56,9.09-12.77,10.57-17.5,0-19.07-2-66,2-76.33l3.63-41.6-1.32-29.74h-25A55.13,55.13,0,0,0,60.75,598.33Z"/>
            <path class="cls-95" d="M63.08,586.44a58.29,58.29,0,0,0,7.86,19c.7,1,1.33,2.13,1.93,3.2.12.5,1.9,7.16,4.1,16.1s4.88,20.15,6.79,29.69c-1.05,12-4,53.87,1.62,90.17A6.66,6.66,0,0,0,90.17,750a12,12,0,0,0,4,.42,10,10,0,0,0,3.36-.8c6-2.5,10.26-12,10.26-12s.15-60.28,3.28-76.1a70.78,70.78,0,0,0,1.1-9.14c.58-9.69,1.63-27.36,2-34.75.63-14.36.73-26.43.23-31.81l-29.82.37Z"/>
            <path class="cls-94" d="M84.53,586.19l.25,3s.3,7.51,4.08,18.77,7.58,38,8,48c.4,9.21-4.5,53.12-2.67,94.55a10,10,0,0,0,3.36-.8c6-2.5,10.26-12,10.26-12s.15-60.28,3.28-76.1a70.78,70.78,0,0,0,1.1-9.14c.58-9.69,1.63-27.36,2-34.75.63-14.36.73-26.43.23-31.81Z"/>
            <path class="cls-11" d="M43.8,502.36C48.61,517,51.31,540.93,48.41,551s-4.61,24.2-4.61,24.2c2.73,7.51,28.17,23.78,42.36,25a21.67,21.67,0,0,0,5.21-.2c12.49-1.86,24.2-13,24.2-13s-2.7-41.1-4.38-67.39c-1.12-17.47-3.7-28.36-5.33-33.69a40.66,40.66,0,0,0-1.35-4c-1.5-2-6-5.33-11.69-9.08a.55.55,0,0,1-.13-.05c-3.83-2.56-8.18-5.26-12.56-7.84h0c-5.83-3.45-11.71-6.68-16.42-9l-1.58-.75a37.68,37.68,0,0,0-7.23-2.95c-6.69-1.25-15.65,2.28-18.35,14.39S39,487.74,43.8,502.36Z"/>
            <path class="cls-118" d="M92.87,550.77C93.72,562,92,590,91.37,600c12.49-1.86,24.2-13,24.2-13s-2.7-41.1-4.38-67.39c-1.12-17.47-3.7-28.36-5.33-33.69-1.35-1.55-2.23-2.53-2.23-2.53H87.16s-8.56,1.75-5.46,21.25S91.84,537,92.87,550.77Z"/>
            <path class="cls-119" d="M62,461.4c2.51,3.43,11.49,8.39,15.62,9.27a36.55,36.55,0,0,0,9.42.39c2.75,0,4.88,1.48,5.65,1.81a.55.55,0,0,0,.13.05.08.08,0,0,0,.05,0l-2.45-3.73-2.86-1.82s-4.18-1.53-5.1-2a11,11,0,0,0-2.33-.4h0c-2.48-.3-6-.55-6.58-.62-.78-.1-7.24-4.54-7.51-4.71s-1.43-2.2-2.33-3.71l-1.58-.75A4.79,4.79,0,0,0,62,461.4Z"/>
            <path class="cls-109" d="M52.82,430.31c1.4,8.36,8.48,21.5,12.06,22.71a20.83,20.83,0,0,0,5.91,1.12,5.64,5.64,0,0,0,5.81-4.6A26.46,26.46,0,0,1,79,442c2.5-4.64,5.78-7.06,7.43-6.19s1.48,3.83,1.48,3.83l1.07,0s.1-1,.25-2.23.25-2.85.33-4.08a14.2,14.2,0,0,1,2.88-8.66,34.21,34.21,0,0,0,4-7.39,13.5,13.5,0,0,0,1-6.61v0c-.68-6.43-3.3-9.07-5.79-10.89-8.1-5.93-25,5.08-31.29,10.34a21.53,21.53,0,0,0-7,10v0A21.44,21.44,0,0,0,52.82,430.31Z"/>
            <path class="cls-6" d="M63.17,454.84l1.55-1.44A36,36,0,0,0,88.18,465s3.66,3.69,4.7,8l-2.13-1.38a9.47,9.47,0,0,0-3.69-1.43c-.84-.13-2.69-.23-2.69-.23-8.36-.11-16.68-6-21-9.55A3.66,3.66,0,0,1,63.17,454.84Z"/>
            <path class="cls-120" d="M101,732.29a4.41,4.41,0,0,1-.53.75C100.69,732.77,100.86,732.51,101,732.29Z"/>
            <path class="cls-120" d="M100.2,733.44a3.6,3.6,0,0,0,.28-.4,7.43,7.43,0,0,1-.55.67A2.29,2.29,0,0,0,100.2,733.44Z"/>
            <path class="cls-11" d="M85.36,497.07c1.58,9.22,19.15,36,19.88,37.1A128.61,128.61,0,0,0,114,546.72h0c2.33,2.9,4.25,4.78,5.45,5.13.23.07.46.12.71.17,5.45,1.3,9.58-2.23,11.09-6.18,1.42-3.13,5.68-10.51,9.16-20,2.33-6.33,3.73-14.07,5.23-20.37a6.18,6.18,0,0,0-.63-4.51c-.07-.1-.12-.23-.2-.33-1-1.62-2.32-3.45-3.53-3.65-2.2-.33-2.62.25-2.62.25s-4,6.48-7.24,11.49c-2.48,3.88-5.26,10.66-6.38,13.52-.3.85-.5,1.35-.5,1.35-5.81-13.49-13.4-30.07-16.48-37-3.73-8.39-15.07-10.19-21-3.13a2.21,2.21,0,0,1-.25.3,5.06,5.06,0,0,0-.82,1.68l0,0,0,.05C85.71,485.81,83.88,488.46,85.36,497.07Z"/>
            <path class="cls-111" d="M52.82,430.31c1.4,8.36,8.48,21.5,12.06,22.71a20.83,20.83,0,0,0,5.91,1.12,5.64,5.64,0,0,0,5.81-4.6A26.46,26.46,0,0,1,79,442c2.5-4.64,5.78-7.06,7.43-6.19s1.48,3.83,1.48,3.83l1.07,0s.1-1,.25-2.23.25-2.85.33-4.08a14.2,14.2,0,0,1,2.88-8.66,34.21,34.21,0,0,0,4-7.39,13.5,13.5,0,0,0,1-6.61,37,37,0,0,1-26.39,21.71c-19.68,4.13-17.82-11.49-17.7-12.29A21.44,21.44,0,0,0,52.82,430.31Z"/>
            <path class="cls-121" d="M125.09,522.21c-.3.85-.5,1.35-.5,1.35a18.26,18.26,0,0,1,1.57,8.14A10.26,10.26,0,0,0,125.09,522.21Z"/>
            <path class="cls-13" d="M86,485.43l.08,0s-.61,7.68,6.68,20.5,22.8,43.5,30.46,42.66c4-.45,13-19.4,16.28-28.26a148.28,148.28,0,0,0,5.35-19.71c.08.1.13.23.2.33a6.18,6.18,0,0,1,.63,4.51c-1.5,6.3-2.9,14-5.23,20.37-3.48,9.52-7.74,16.9-9.16,20-1.52,4-5.64,7.43-11.09,6.15v0c-.25,0-.48-.1-.71-.17-1.2-.35-3.12-2.23-5.45-5.13h0a128.61,128.61,0,0,1-8.78-12.55c-.73-1.07-18.3-27.88-19.88-37.1C83.88,488.46,85.71,485.81,86,485.43Z"/>
          </g>
        </g>
      </g>
    </g>
  </g>
</svg>
