<?xml version="1.0" encoding="utf-8"?>
<!-- Generator: Adobe Illustrator 24.0.2, SVG Export Plug-In . SVG Version: 6.00 Build 0)  -->
<svg version="1.1" id="Capa_1" xmlns="http://www.w3.org/2000/svg" xmlns:xlink="http://www.w3.org/1999/xlink" x="0px" y="0px"
	 viewBox="0 0 1366 768" style="enable-background:new 0 0 1366 768;" xml:space="preserve">
<style type="text/css">
	.st0{fill:#E5E5E5;}
</style>
<g>
	<path class="st0" d="M658.6,500.4c1.2-70.1,17.5-139.8,45.5-206.9c13-31.2,25.8-33.2,50.9-9.7c5.9,5.5,11.7,11.1,17.3,17
		C823,355,886.7,379.6,959.7,384c22.9,1.4,45.9,3.1,68.5,6.9c26.3,4.3,33.6,17,22.9,40.8c-32.7,72.7-70,142.8-124,202.5
		c-29.2,32.2-62.4,59.1-106.9,66.9c-64.4,11.3-113.7-15.7-139.6-75.8C663.8,586.3,658.9,545.2,658.6,500.4z M846.7,628.4
		c5.3-26.3-20.4-64.7-50.7-74.9c-29.6-10-72,2.5-80.9,22.4C758.9,593.5,802.8,611,846.7,628.4z M713.4,406.9
		c7.7,23.5,20.6,41.1,45.4,44.3c20.1,2.6,36.3-5.4,49-22.9C771.9,439.1,741.6,428.7,713.4,406.9z M877.5,452.3
		c2.7,27.4,9.5,48.3,32.1,58.8c18.6,8.7,37.6,6.2,57.2-6C916.3,492.7,916.3,492.7,877.5,452.3z"/>
	<path class="st0" d="M726.7,242.8c-27.7-12.4-36.7-10.7-45.9,17.9c-15.3,47.6-27.2,96.3-39.3,144.9c-2.5,9.9-6,13.8-15.3,17.3
		c-49.8,18.3-93.9,6.2-134.5-24.2c-66.9-50.1-107.3-119.2-137.3-195.2c-9.3-23.5-16.9-48-22.5-72.7c-6.8-30.1,2.3-39.1,32.7-36
		c14.8,1.5,29.5,3.7,44.3,5.2c62.3,6.4,119.1-9.3,171.6-42.6c21.5-13.6,42.6-27.8,64.9-40c27.1-15,41.1-9.4,47.1,20.6
		c12.4,61.3,23,122.9,34.1,184.5C727.6,228.4,726.7,234.7,726.7,242.8z M646.1,269.6c-46.3,14.2-91.6,28-136.8,41.9
		c8.5,20,47.3,35.8,76,29.7C617.4,334.2,646.8,300.1,646.1,269.6z M511.1,219.3c-17-24.8-39.2-35.6-58.2-31.5
		c-20.6,4.4-38.7,22-41.7,42.3C440.9,207.7,472.2,201.4,511.1,219.3z M671.9,153.6c-24-18.3-48.2-20.6-66-9.2
		c-16.8,10.8-27.2,32.4-23,50.8C603.4,163.9,632.1,151,671.9,153.6z"/>
</g>
</svg>
