<?xml version="1.0" encoding="utf-8"?>
<!-- Generator: Adobe Illustrator 24.0.2, SVG Export Plug-In . SVG Version: 6.00 Build 0)  -->
<svg version="1.1" id="Capa_1" xmlns="http://www.w3.org/2000/svg" xmlns:xlink="http://www.w3.org/1999/xlink" x="0px" y="0px"
	 viewBox="0 0 1366 768" style="enable-background:new 0 0 1366 768;" xml:space="preserve">
<style type="text/css">
	.st0{fill:#E5E5E5;}
</style>
<g>
	<path class="st0" d="M1092,484.4c-4.4,5.2-8,11.3-13.3,15.3c-23.4,17.9-47.3,35.3-71.1,52.8c-23,17-47.5,17.6-71.5,1.8
		c-20.6-13.5-41.3-26.9-61.7-40.7c-10.7-7.2-20.6-7.4-31.4-0.2c-21.1,14.1-42.5,27.8-63.9,41.5c-23.5,15-47.2,15.2-70.9,0.3
		c-22.4-14-44.7-28.2-67.1-42.3c-10.8-6.8-18.2-6.5-28.2,1c-17,12.8-34,25.7-51.1,38.4c-22.6,16.9-47.2,17.7-70.8,2.4
		c-21.5-13.9-43-28-64.6-41.9c-9.8-6.4-16.7-6-25.8,1.6c-20.7,17.2-41.4,34.6-62.1,51.8c-14.7,12.2-26.1,10.2-35.5-6.4
		c0-3.1,0-6.2,0-9.2c4.2-5,7.7-10.7,12.6-14.9c19.6-16.9,39.7-33.3,59.6-49.9c23.5-19.6,47.3-21.1,72.8-4.6
		c20.9,13.5,41.7,27.1,62.6,40.6c11.8,7.6,18.4,7.4,29.4-0.9c16.8-12.7,33.6-25.3,50.4-38c22.1-16.6,47-17.7,70.3-3
		c22.2,13.9,44.4,27.7,66.3,42c11.2,7.3,21.6,7.5,32.8,0c20.9-14,42.1-27.4,63.2-41.1c23.8-15.4,47.6-15.3,71.4,0.2
		c20.6,13.5,41.1,27.1,61.7,40.6c11.9,7.8,18.4,7.6,30-1c23.5-17.4,47-34.8,70.6-52.1c15.3-11.3,25.4-9.4,35.3,6.6
		C1092,478.2,1092,481.3,1092,484.4z"/>
	<path class="st0" d="M651.2,340.7c7.3-6.3,14.4-12.1,21.2-18.4c1.7-1.6,3.3-4.9,2.8-7c-6.4-31.1-13.1-62.2-19.9-93.9
		c-13.5-1.1-27-2.2-40.5-3.2c-45.8-3.3-91.7-6.6-137.5-9.7c-31.9-2.1-50.9-29.7-38.9-57.4c6.8-15.5,19.2-24.6,36.1-24.1
		c25.4,0.7,50.7,2.9,76.1,4.7c46.6,3.3,93.2,6.8,139.8,10.3c20,1.5,33.8,12.7,38.1,32.3c11.8,53.6,23.4,107.2,33.8,161.1
		c1.8,9.5,5.7,12.2,13.4,14.8c72.3,24.5,144.7,49.1,216.8,74.2c15.1,5.3,29.4,12.8,45.4,19.8c-22.5,16.6-43.1,32.3-64.3,47.2
		c-2.5,1.8-8.6,0.9-11.6-0.9c-20.8-13.1-41.2-27-61.9-40.4c-28.8-18.6-57.8-18.6-86.7-0.3c-21,13.4-41.8,27-62.6,40.7
		c-6.3,4.2-12.1,4.2-18.5,0.1c-15.3-9.9-30.7-19.6-46.3-29.1c-3.6-2.2-4.9-4.4-4.1-8.6c8.3-41.6-2.3-78.2-29.9-110.1
		C651.8,342.4,651.7,341.9,651.2,340.7z"/>
	<path class="st0" d="M664,445.5c-11.5-3-22.4-7.2-33.6-8.4c-18.5-2-35.5,3.5-50.4,15c-16.7,12.8-33.7,25.2-50.3,38.1
		c-5,3.9-9.1,4.3-14.5,0.7c-18.4-12.2-37.1-23.9-55.4-36.2c-2.8-1.9-5.3-5.6-5.9-8.8c-11-56.3,27.9-113.2,84-123.3
		c59.8-10.7,116,27.3,126,85.3C666.1,420.8,666.4,433.7,664,445.5z"/>
</g>
<g>
</g>
<g>
</g>
<g>
</g>
<g>
</g>
<g>
</g>
<g>
</g>
<g>
</g>
<g>
</g>
<g>
</g>
<g>
</g>
<g>
</g>
<g>
</g>
<g>
</g>
<g>
</g>
<g>
</g>
</svg>
