<svg id="Capa_1" data-name="Capa 1" xmlns="http://www.w3.org/2000/svg" viewBox="0 0 1920 1080">
  <defs>
    <style>
      .cls-1 {
        opacity: 0.4;
      }

      .cls-2 {
        fill: #4254bb;
      }

      .cls-3 {
        fill: #001277;
      }
    </style>
  </defs>
  <title>SelectSection</title>
  <g class="cls-1">
    <path class="cls-2" d="M828.57,376.46c-9.67-24.28-32.42-38.35-30.89-73.77,1-23,8.6-35.07-1.18-55.36-23.62-49-64.12-57.07-100.18-39.36S630,263.69,591.41,259c-21-2.58-39.71-19-60.42-23.15a35.63,35.63,0,0,0-18.2,1c-21.58,6.95-42.06,36.71-51.14,70.6-7.37,27.47-1.77,55.37-12.34,82.08-11.27,28.45-31.21,47.49-38,80.72-8.09,39.89,11.42,76.19,34.59,78.69,14.75,1.59,42.38-.35,55.79-13.49,16.32-16,31.43-16.2,49.22-14.48,33.87,3.29,67.11,17,100.11,27.3,28.28,8.83,55.94,21.06,85,24.16,21.31,2.27,39.42,3.81,53.12-30.85C805.52,500.08,848.86,427.39,828.57,376.46Z"/>
    <path class="cls-3" d="M812.73,382.7c-9-21.58-30.08-34.13-28.75-65.57.87-20.43,7.88-31.11-1.21-49.15-22-43.6-59.44-50.82-92.76-35.18s-61.22,49.33-96.94,45c-19.46-2.33-36.77-17-56-20.69a34.25,34.25,0,0,0-16.83.83c-19.94,6.12-38.82,32.5-47.15,62.57-6.75,24.37-1.51,49.16-11.23,72.84C451.56,418.62,433.15,435.48,427,465c-7.41,35.4,10.73,67.67,32.17,69.94,13.64,1.45,39.2-.21,51.58-11.85,15.06-14.17,29-14.32,45.5-12.74,31.34,3,62.12,15.23,92.67,24.46,26.18,7.91,51.8,18.83,78.65,21.64,19.71,2.07,36.47,3.48,49.07-27.27C791.68,492.41,831.61,428,812.73,382.7Z"/>
  </g>
  <g class="cls-1">
    <path class="cls-2" d="M1339.45,902c26,9,50.92,1.46,79.84,26.32,18.8,16.16,24.56,29.91,47.25,36.2,54.85,15.2,84.91-9.68,90.76-48.48s-8.73-86.86,17.47-112.52c14.26-14,38.85-16.92,54.24-29.63a29.76,29.76,0,0,0,9.65-14.25c6.56-20.77-6.69-56-30-85.49-18.88-23.9-45.57-38.4-62-64.18-17.47-27.48-22-55.12-46.09-82.42-28.9-32.77-70.66-42.5-86.1-26.86-9.82,10-24.09,31.89-20.75,50.71,4.08,22.91-4.44,34.33-16.14,46.47-22.25,23.09-52.89,38.75-80.56,56.5-23.71,15.21-49.91,27.68-69.21,47.29C1213.71,716,1202,728.51,1223.27,762,1248.7,801.94,1284.93,883,1339.45,902Z"/>
    <path class="cls-3" d="M1343.31,885.94c23.34,7.73,46,.38,71.71,22.44,16.69,14.34,21.65,26.72,42,32,49.32,12.79,77-10.37,83-45.73s-6.28-78.77,17.89-102.58c13.16-13,35.44-16.1,49.59-27.94a28.49,28.49,0,0,0,9-13.12c6.33-19-5-50.77-25.51-77.13-16.63-21.37-40.49-34-54.83-57.17-15.28-24.65-18.87-49.68-40.13-74-25.53-29.24-63.11-37.31-77.36-22.81-9.07,9.22-22.38,29.43-19.7,46.47,3.25,20.74-4.66,31.28-15.46,42.52-20.56,21.41-48.55,36.21-73.9,52.85C1287.9,676,1264,687.79,1246.16,706c-13.08,13.34-23.91,24.91-5.29,54.91C1263.12,796.74,1294.37,869.73,1343.31,885.94Z"/>
  </g>
</svg>
